<?xml version="1.0" encoding="UTF-8"?><svg id="a" xmlns="http://www.w3.org/2000/svg" viewBox="0 0 339.41 487.33"><defs><style>.b{stroke-width:14px;}.b,.c{fill:none;stroke:#15173e;stroke-miterlimit:10;}.d{fill:#15173e;}.c{stroke-width:10px;}</style></defs><path class="d" d="M313.69,357.09c-3.71-4.11-7.97-7.93-12.76-11.39,3.99-7.23,9.91-18.67,15.84-32.86,5.16-12.32,10.33-26.71,14.23-42.23,3.9-15.52,6.55-32.18,6.56-49.08,0-12.51-1.46-25.16-5.01-37.5-2.66-9.25-6.51-18.31-11.78-26.93-7.89-12.93-18.97-24.8-33.67-34.8-14.7-10.01-32.97-18.18-55.37-24.06l-.19-.05-.19-.04c-17.64-3.89-33.75-5.73-48.46-5.73-13.42,0-25.69,1.53-36.86,4.43-9.77,2.53-18.69,6.11-26.77,10.58-14.14,7.81-25.63,18.33-34.75,30.43-6.85,9.08-12.38,19.03-16.85,29.48-6.7,15.68-11.01,32.46-13.67,49.25-2.66,16.79-3.67,33.61-3.67,49.37,0,15.76,1.01,30.46,2.44,43.04,.71,6.29,1.53,12.04,2.38,17.14,.07,.4,.14,.8,.2,1.19-7.4,.55-14.11,1.95-20.12,4.11-5.96,2.14-11.22,5.04-15.71,8.54-6.75,5.24-11.71,11.83-14.88,18.92C1.44,365.97,0,373.53,0,380.97c0,4.4,.5,8.77,1.47,13.01,1.49,6.56,4.26,12.64,7.96,17.99,3.7,5.36,8.34,10.01,13.63,13.8,6.18,4.42,12.8,7.6,19.58,9.64,6.78,2.04,13.7,2.96,20.55,2.96,5.73,0,11.41-.64,16.96-1.78,1.56,5.18,3.67,10.25,6.42,15.06,4.59,8.07,10.97,15.42,19.24,21.27,8.27,5.86,18.37,10.18,30.21,12.53,6.4,1.27,12.57,1.88,18.49,1.88,6.98,0,13.6-.85,19.81-2.43,10.87-2.77,20.42-7.79,28.48-14.19,3.7-2.93,7.09-6.16,10.18-9.59,1.93,1.38,3.94,2.68,6.02,3.91,5.66,3.32,11.85,6.03,18.53,7.89,6.67,1.86,13.82,2.89,21.34,2.88,3.99,0,8.09-.29,12.27-.88,9.01-1.27,17.39-4.17,24.85-8.33,11.2-6.24,20.32-15.28,26.66-25.94,6.34-10.66,9.91-22.96,9.91-35.73,0-8.97-1.77-18.15-5.54-27.01-3.13-7.38-7.57-14.43-13.33-20.82Zm-184.14,2.96c1.45,1.26,2.31,2.46,2.89,3.68,.61,1.32,.94,2.75,.95,4.56,0,1.84-.38,4.07-1.26,6.58-.77,2.19-1.92,4.58-3.43,7.06-2.65,4.34-6.43,8.91-11.04,13.24-5.95,5.59-13.28,10.76-21.24,14.78,.1-6.65,1.04-13.33,2.67-19.56,1.29-4.95,3-9.62,5-13.76,1.5-3.11,3.16-5.92,4.9-8.33,2.61-3.63,5.39-6.34,7.92-7.98,1.26-.83,2.45-1.39,3.54-1.75,1.09-.36,2.09-.51,3.07-.51,.93,0,1.85,.14,2.9,.47,.94,.3,1.99,.79,3.15,1.53Zm84.82,59.47c-1.24,3.75-2.77,7.47-4.56,11.1-4.73-6.17-8.46-12.99-11.01-19.75-2.81-7.42-4.18-14.76-4.17-20.85,0-3.03,.33-5.74,.92-7.99,.43-1.69,1-3.11,1.64-4.26,.48-.86,.99-1.57,1.53-2.16,.81-.88,1.66-1.51,2.73-2.02,1.07-.5,2.39-.87,4.2-.99,.29-.02,.57-.03,.84-.03,1.01,0,1.84,.12,2.56,.31,.63,.17,1.18,.39,1.71,.69,.92,.51,1.8,1.23,2.7,2.34,1.34,1.64,2.65,4.19,3.57,7.56,.93,3.36,1.46,7.49,1.46,12.07,0,7.29-1.34,15.67-4.09,23.97Zm95.11,2.93c-3.16,8.36-8.55,15.89-15.58,21.65-7.04,5.76-15.67,9.76-25.53,11.16-3.29,.47-6.45,.68-9.49,.68-5.1,0-9.86-.61-14.34-1.71-7.4-1.83-14.03-5.04-19.93-9.23,3.66-6.36,6.58-13.01,8.77-19.71,3.28-10.07,4.94-20.22,4.94-29.74,0-5.29-.52-10.39-1.63-15.2-.84-3.61-2.01-7.06-3.6-10.28-1.2-2.42-2.63-4.71-4.36-6.81-2.57-3.14-5.83-5.85-9.65-7.71-3.82-1.87-8.16-2.83-12.6-2.82-.7,0-1.39,.02-2.1,.07-4.76,.29-9.3,1.57-13.23,3.78-2.95,1.65-5.53,3.81-7.66,6.28-3.2,3.72-5.37,8.08-6.74,12.67-1.37,4.6-1.97,9.47-1.98,14.49,.01,9.1,1.97,18.75,5.62,28.3,2.74,7.16,6.45,14.25,11.12,20.93,2.05,2.94,4.3,5.79,6.73,8.53-.53,.59-1.06,1.19-1.62,1.77-5.23,5.4-11.29,9.85-18.24,12.97-6.95,3.12-14.81,4.94-23.87,4.95-4.56,0-9.42-.47-14.62-1.5-8.38-1.67-15.12-4.44-20.6-7.92-4.12-2.62-7.54-5.65-10.42-9.02-4.31-5.06-7.41-10.94-9.46-17.39-.11-.35-.21-.71-.31-1.06,6.61-2.82,12.88-6.28,18.66-10.19,5.01-3.39,9.65-7.11,13.84-11.08,6.28-5.96,11.53-12.44,15.36-19.29,1.91-3.43,3.46-6.95,4.56-10.58,1.09-3.62,1.73-7.36,1.73-11.16,0-4.38-.88-8.85-2.82-12.99-1.94-4.15-4.92-7.89-8.67-10.94l-.35-.29-.37-.25c-2.7-1.82-5.55-3.24-8.51-4.2-2.95-.96-6-1.44-9-1.43-3.78,0-7.46,.76-10.86,2.07-2.97,1.15-5.74,2.72-8.29,4.58-4.47,3.26-8.33,7.41-11.7,12.14-5.04,7.1-9,15.56-11.78,24.78-2.77,9.22-4.34,19.21-4.34,29.37,0,1.95,.06,3.91,.18,5.87-4.53,.98-9.07,1.5-13.52,1.5-5.09,0-10.05-.67-14.82-2.11-4.77-1.44-9.36-3.63-13.76-6.78-3.49-2.5-6.5-5.54-8.85-8.93-2.35-3.4-4.03-7.14-4.93-11.11-.64-2.82-.97-5.72-.97-8.6,0-4.33,.75-8.6,2.27-12.51,1.14-2.94,2.72-5.68,4.77-8.17,3.09-3.74,7.25-6.98,13.04-9.41,5.79-2.42,13.27-3.98,22.78-3.98,1.37,0,2.77,.03,4.22,.1l13.11,.61-2.99-12.78c-.74-3.18-1.56-7.23-2.35-11.97-2.38-14.22-4.56-34.54-4.55-56.9,0-17.31,1.3-35.84,4.73-53.73,2.57-13.42,6.34-26.47,11.58-38.39,3.93-8.94,8.68-17.24,14.35-24.64,4.26-5.55,9.03-10.6,14.39-15.06,8.05-6.7,17.42-12.1,28.55-15.9,11.13-3.79,24.04-5.96,39.12-5.96,13.01,0,27.62,1.62,43.98,5.22,18.23,4.81,32.95,11.12,44.75,18.42,8.88,5.5,16.13,11.56,22.05,18.04,8.87,9.72,14.81,20.38,18.61,31.76,3.8,11.37,5.43,23.48,5.42,35.82,0,14.81-2.35,29.92-5.96,44.24-5.4,21.47-13.6,41.1-20.43,55.27-3.42,7.08-6.49,12.8-8.69,16.72-1.1,1.96-1.98,3.47-2.58,4.47-.3,.5-.53,.88-.68,1.12-.07,.12-.13,.21-.16,.26l-.03,.06h0l-5.51,8.82,9.06,5.1c6.59,3.71,11.94,8.06,16.23,12.81,4.29,4.75,7.51,9.9,9.79,15.27,2.72,6.41,3.96,12.89,3.96,19.26,0,6.03-1.13,11.96-3.24,17.53Z"/><g><g><polygon class="d" points="211.32 217.05 211.32 217.04 211.32 217.04 211.32 217.05"/><path class="d" d="M243.04,212.53c-.41-1.36-.99-2.69-1.75-3.92-1.13-1.84-2.68-3.42-4.4-4.57-1.72-1.16-3.59-1.9-5.42-2.31h0c-1.15-.26-2.37-.41-3.62-.41-1.93,0-3.97,.37-5.88,1.18-1.43,.6-2.78,1.44-3.97,2.45-1.79,1.51-3.2,3.38-4.28,5.42-1.08,2.04-1.85,4.26-2.4,6.67-.47,2.08-.72,4.09-.72,6.08,0,1.9,.24,3.78,.78,5.6,.41,1.36,.99,2.69,1.75,3.92,1.13,1.84,2.68,3.42,4.4,4.57,1.72,1.16,3.59,1.9,5.42,2.31h.02c1.13,.26,2.34,.41,3.6,.41,1.93,0,3.96-.37,5.88-1.17,1.43-.6,2.78-1.44,3.97-2.45,1.79-1.51,3.2-3.38,4.28-5.42,1.08-2.04,1.85-4.26,2.4-6.68h0c.47-2.08,.72-4.09,.72-6.08,0-1.9-.24-3.78-.78-5.6Z"/></g><g><polygon class="d" points="94.48 195.46 94.48 195.46 94.48 195.45 94.48 195.46"/><path class="d" d="M125.02,191.37c-.4-1.31-.97-2.59-1.71-3.77-1.11-1.77-2.61-3.29-4.27-4.38-1.66-1.1-3.45-1.8-5.19-2.2-1.13-.26-2.31-.4-3.52-.4-1.84,0-3.79,.34-5.63,1.11-1.38,.57-2.68,1.36-3.83,2.32-1.73,1.44-3.09,3.22-4.12,5.15-1.03,1.93-1.76,4.02-2.27,6.27-.43,1.91-.67,3.78-.67,5.64,0,1.81,.23,3.61,.76,5.37,.4,1.31,.97,2.59,1.71,3.77,1.11,1.77,2.61,3.29,4.27,4.38,1.66,1.11,3.45,1.81,5.2,2.2h.01c1.1,.25,2.27,.4,3.5,.4,1.84,0,3.79-.34,5.63-1.11,1.38-.57,2.68-1.36,3.83-2.32,1.73-1.44,3.09-3.22,4.12-5.15,1.03-1.93,1.76-4.02,2.27-6.27h0c.43-1.91,.67-3.78,.67-5.63,0-1.81-.23-3.61-.76-5.37Z"/><polygon class="d" points="113.83 181.01 113.84 181.01 113.85 181.01 113.83 181.01"/></g><circle class="d" cx="165.1" cy="272.47" r="14.19"/></g><polyline class="c" points="181.71 85.16 125.1 42.9 234.01 5.62 328.79 81.5 261.82 101.14"/><path class="b" d="M182.12,96.61s-9.14-45.47,43.49-35.12c57.43,11.29,31.09,50.84,31.09,50.84"/><line class="c" x1="290.77" y1="48.74" x2="290.77" y2="197.45"/></svg>