<svg viewBox="0 0 21 21" xmlns="http://www.w3.org/2000/svg" fill="#16183C" class="w-[20px] h-[20px]"><path d="M10.1 19.53C15.3081 19.53 19.53 15.3081 19.53 10.1C19.53 4.892 15.3081 0.670044 10.1 0.670044C4.892 0.670044 0.670044 4.892 0.670044 10.1C0.670044 15.3081 4.892 19.53 10.1 19.53Z" stroke="white" stroke-width="1.33" stroke-miterlimit="10"></path> <path d="M14.81 18.27C13.3769 17.4414 12.1871 16.2502 11.3604 14.8161C10.5336 13.3819 10.0989 11.7554 10.1 10.1C10.0979 8.44443 10.5321 6.81751 11.359 5.38319C12.1859 3.94888 13.3762 2.75782 14.81 1.93002L11.55 0.780029L7.54998 1.00003L3.99998 2.87003L1.17998 6.87003L0.72998 11.46L1.93998 14.86L4.36998 17.62L7.78998 19.27L11.63 19.43L14.81 18.27Z" fill="white"></path></svg>