<svg width="19" height="15" viewBox="0 0 19 15" fill="none" xmlns="http://www.w3.org/2000/svg">
<g clip-path="url(#clip0_5018:67)">
<path d="M16.0797 1.20001C14.8487 0.629994 13.5471 0.226434 12.2096 0H12.15C11.9716 0.324196 11.8109 0.658043 11.6695 1C10.2312 0.779971 8.76798 0.779971 7.32968 1C7.19968 0.69 6.99945 0.31 6.83945 0H6.77011C5.43615 0.227983 4.13786 0.631497 2.90976 1.20001C0.709901 4.35108 -0.286674 8.18653 0.100191 12.01C1.5336 13.0715 3.13545 13.883 4.83945 14.41H4.90976C5.28671 13.9123 5.62121 13.3837 5.90976 12.83V12.74C5.3973 12.5495 4.90266 12.3153 4.43027 12.04V11.94L4.72031 11.7H4.78964C6.28192 12.4017 7.91114 12.7655 9.56015 12.7655C11.2092 12.7655 12.8374 12.4017 14.3297 11.7H14.4L14.69 11.94V12.04C14.2132 12.3134 13.7147 12.5475 13.1998 12.74V12.83C13.4936 13.3775 13.8278 13.9023 14.1998 14.4H14.2701C15.9773 13.8733 17.5833 13.0618 19.0201 12C19.4231 8.17217 18.4242 4.32802 16.2096 1.17999L16.0797 1.20001ZM6.33945 9.88C5.87283 9.82149 5.44358 9.59462 5.13242 9.242C4.82126 8.88939 4.65 8.4353 4.65 7.96503C4.65 7.49475 4.82126 7.04067 5.13242 6.68805C5.44358 6.33543 5.87283 6.10851 6.33945 6.04999C6.80607 6.10851 7.23532 6.33543 7.54648 6.68805C7.85764 7.04067 8.02988 7.49475 8.02988 7.96503C8.02988 8.4353 7.85764 8.88939 7.54648 9.242C7.23532 9.59462 6.80607 9.82149 6.33945 9.88ZM12.6598 9.88C12.1931 9.82149 11.7639 9.59462 11.4527 9.242C11.1416 8.88939 10.9703 8.4353 10.9703 7.96503C10.9703 7.49475 11.1416 7.04067 11.4527 6.68805C11.7639 6.33543 12.1931 6.10851 12.6598 6.04999C13.1264 6.10851 13.5556 6.33543 13.8668 6.68805C14.178 7.04067 14.3492 7.49475 14.3492 7.96503C14.3492 8.4353 14.178 8.88939 13.8668 9.242C13.5556 9.59462 13.1264 9.82149 12.6598 9.88Z" fill="white"></path>
</g>
<defs>
<clipPath id="clip0_5018:67">
<rect width="19" height="14.48" fill="white"></rect>
</clipPath>
</defs>
</svg>