<?xml version="1.0" encoding="UTF-8"?><svg xmlns="http://www.w3.org/2000/svg" viewBox="0 0 583.9 400.96"><defs><style>.c{fill:#16173e;}.d{fill:none;stroke:#16173e;stroke-miterlimit:10;stroke-width:4px;}</style></defs><g id="a"><rect class="d" x="2" y="287.24" width="172.79" height="111.71"/><line class="d" x1="75.38" y1="334.69" x2="2" y2="287.24"/><line class="d" x1="174.79" y1="287.24" x2="107.24" y2="330.92"/><rect class="d" x="206.49" y="287.24" width="172.79" height="111.71"/><line class="d" x1="279.87" y1="334.69" x2="206.49" y2="287.24"/><line class="d" x1="379.27" y1="287.24" x2="311.72" y2="330.92"/><rect class="d" x="409.11" y="287.24" width="172.79" height="111.71"/><line class="d" x1="482.5" y1="334.69" x2="409.11" y2="287.24"/><line class="d" x1="581.9" y1="287.24" x2="514.35" y2="330.92"/><rect class="d" x="2" y="143.92" width="172.79" height="111.71"/><line class="d" x1="75.38" y1="191.36" x2="2" y2="143.92"/><line class="d" x1="174.79" y1="143.92" x2="107.24" y2="187.59"/><rect class="d" x="206.49" y="143.92" width="172.79" height="111.71"/><line class="d" x1="279.87" y1="191.36" x2="206.49" y2="143.92"/><line class="d" x1="379.27" y1="143.92" x2="311.72" y2="187.59"/><rect class="d" x="409.11" y="143.92" width="172.79" height="111.71"/><line class="d" x1="482.5" y1="191.36" x2="409.11" y2="143.92"/><line class="d" x1="581.9" y1="143.92" x2="514.35" y2="187.59"/><rect class="d" x="2" y="2" width="172.79" height="111.71"/><line class="d" x1="75.38" y1="49.44" x2="2" y2="2"/><line class="d" x1="174.79" y1="2" x2="107.24" y2="45.67"/><rect class="d" x="206.49" y="2" width="172.79" height="111.71"/><line class="d" x1="279.87" y1="49.44" x2="206.49" y2="2"/><line class="d" x1="379.27" y1="2" x2="311.72" y2="45.67"/><rect class="d" x="409.11" y="2" width="172.79" height="111.71"/><line class="d" x1="482.5" y1="49.44" x2="409.11" y2="2"/><line class="d" x1="581.9" y1="2" x2="514.35" y2="45.67"/></g><g id="b"><path class="c" d="M106.02,351.72c-.45-.5-.98-.97-1.56-1.39,.49-.88,1.21-2.29,1.94-4.02,.63-1.51,1.26-3.27,1.74-5.17,.48-1.9,.8-3.94,.8-6.01,0-1.53-.18-3.08-.61-4.59-.33-1.13-.8-2.24-1.44-3.3-.97-1.58-2.32-3.04-4.12-4.26-1.8-1.23-4.04-2.23-6.78-2.95h-.05c-2.16-.49-4.13-.71-5.93-.71-1.64,0-3.15,.19-4.51,.54-1.2,.31-2.29,.75-3.28,1.29-1.73,.96-3.14,2.24-4.25,3.73-.84,1.11-1.52,2.33-2.06,3.61-.82,1.92-1.35,3.97-1.67,6.03-.33,2.06-.45,4.11-.45,6.04,0,1.93,.12,3.73,.3,5.27,.09,.77,.19,1.47,.29,2.1,0,.05,.02,.1,.02,.15-.91,.07-1.73,.24-2.46,.5-.73,.26-1.37,.62-1.92,1.05-.83,.64-1.43,1.45-1.82,2.32-.39,.87-.57,1.79-.57,2.7,0,.54,.06,1.07,.18,1.59,.18,.8,.52,1.55,.97,2.2,.45,.66,1.02,1.23,1.67,1.69,.76,.54,1.57,.93,2.4,1.18,.83,.25,1.68,.36,2.52,.36,.7,0,1.4-.08,2.08-.22,.19,.63,.45,1.25,.79,1.84,.56,.99,1.34,1.89,2.36,2.6,1.01,.72,2.25,1.25,3.7,1.53,.78,.16,1.54,.23,2.26,.23,.85,0,1.67-.1,2.42-.3,1.33-.34,2.5-.95,3.49-1.74,.45-.36,.87-.75,1.25-1.17,.24,.17,.48,.33,.74,.48,.69,.41,1.45,.74,2.27,.97,.82,.23,1.69,.35,2.61,.35,.49,0,.99-.04,1.5-.11,1.1-.16,2.13-.51,3.04-1.02,1.37-.76,2.49-1.87,3.26-3.18,.78-1.3,1.21-2.81,1.21-4.37,0-1.1-.22-2.22-.68-3.31-.38-.9-.93-1.77-1.63-2.55Zm-22.54,.36c.18,.15,.28,.3,.35,.45,.08,.16,.11,.34,.12,.56,0,.23-.05,.5-.15,.81-.09,.27-.23,.56-.42,.86-.32,.53-.79,1.09-1.35,1.62-.73,.68-1.63,1.32-2.6,1.81,.01-.81,.13-1.63,.33-2.39,.16-.61,.37-1.18,.61-1.68,.18-.38,.39-.72,.6-1.02,.32-.44,.66-.78,.97-.98,.15-.1,.3-.17,.43-.21,.13-.04,.26-.06,.38-.06,.11,0,.23,.02,.35,.06,.12,.04,.24,.1,.39,.19Zm10.38,7.28c-.15,.46-.34,.92-.56,1.36-.58-.75-1.04-1.59-1.35-2.42-.34-.91-.51-1.81-.51-2.55,0-.37,.04-.7,.11-.98,.05-.21,.12-.38,.2-.52,.06-.11,.12-.19,.19-.26,.1-.11,.2-.19,.33-.25,.13-.06,.29-.11,.51-.12,.04,0,.07,0,.1,0,.12,0,.23,.01,.31,.04,.08,.02,.14,.05,.21,.08,.11,.06,.22,.15,.33,.29,.16,.2,.32,.51,.44,.93,.11,.41,.18,.92,.18,1.48,0,.89-.16,1.92-.5,2.93Zm11.64,.36c-.39,1.02-1.05,1.95-1.91,2.65-.86,.71-1.92,1.19-3.13,1.37-.4,.06-.79,.08-1.16,.08-.62,0-1.21-.07-1.75-.21-.91-.22-1.72-.62-2.44-1.13,.45-.78,.81-1.59,1.07-2.41,.4-1.23,.6-2.48,.61-3.64,0-.65-.06-1.27-.2-1.86-.1-.44-.25-.86-.44-1.26-.15-.3-.32-.58-.53-.83-.31-.38-.71-.72-1.18-.94-.47-.23-1-.35-1.54-.35-.09,0-.17,0-.26,0-.58,.04-1.14,.19-1.62,.46-.36,.2-.68,.47-.94,.77-.39,.45-.66,.99-.83,1.55-.17,.56-.24,1.16-.24,1.77,0,1.11,.24,2.3,.69,3.46,.34,.88,.79,1.74,1.36,2.56,.25,.36,.53,.71,.82,1.04-.07,.07-.13,.15-.2,.22-.64,.66-1.38,1.21-2.23,1.59-.85,.38-1.81,.6-2.92,.61-.56,0-1.15-.06-1.79-.18-1.03-.2-1.85-.54-2.52-.97-.5-.32-.92-.69-1.28-1.1-.53-.62-.91-1.34-1.16-2.13-.01-.04-.03-.09-.04-.13,.81-.35,1.58-.77,2.28-1.25,.61-.41,1.18-.87,1.69-1.36,.77-.73,1.41-1.52,1.88-2.36,.23-.42,.42-.85,.56-1.29,.13-.44,.21-.9,.21-1.37,0-.54-.11-1.08-.35-1.59-.24-.51-.6-.97-1.06-1.34l-.04-.03-.05-.03c-.33-.22-.68-.4-1.04-.51-.36-.12-.73-.18-1.1-.18-.46,0-.91,.09-1.33,.25-.36,.14-.7,.33-1.01,.56-.55,.4-1.02,.91-1.43,1.49-.62,.87-1.1,1.91-1.44,3.03-.34,1.13-.53,2.35-.53,3.6,0,.24,0,.48,.02,.72-.56,.12-1.11,.18-1.66,.18-.62,0-1.23-.08-1.81-.26-.58-.18-1.15-.44-1.68-.83-.43-.31-.8-.68-1.08-1.09-.29-.42-.49-.87-.6-1.36-.08-.34-.12-.7-.12-1.05,0-.53,.09-1.05,.28-1.53,.14-.36,.33-.69,.58-1,.38-.46,.89-.85,1.6-1.15,.71-.3,1.62-.49,2.79-.49,.17,0,.34,0,.52,.01l1.61,.07-.37-1.56c-.09-.39-.19-.89-.29-1.47-.29-1.74-.56-4.23-.56-6.97,0-2.12,.16-4.39,.58-6.58,.31-1.64,.78-3.24,1.42-4.7,.48-1.09,1.06-2.11,1.76-3.02,.52-.68,1.11-1.3,1.76-1.84,.99-.82,2.13-1.48,3.49-1.95,1.36-.46,2.94-.73,4.79-.73,1.59,0,3.38,.2,5.38,.64,2.23,.59,4.03,1.36,5.48,2.26,1.09,.67,1.97,1.42,2.7,2.21,1.09,1.19,1.81,2.49,2.28,3.89,.46,1.39,.66,2.87,.66,4.38,0,1.81-.29,3.66-.73,5.42-.66,2.63-1.66,5.03-2.5,6.77-.42,.87-.79,1.57-1.06,2.05-.13,.24-.24,.42-.32,.55-.04,.06-.06,.11-.08,.14l-.02,.03h0l-.67,1.09,1.11,.62c.81,.45,1.46,.99,1.99,1.57,.52,.58,.92,1.21,1.2,1.87,.33,.78,.48,1.58,.48,2.36,0,.74-.14,1.46-.4,2.15Z"/><g><path class="c" d="M89.96,336.36c-.12,.69-.3,1.28-.52,1.77-.16,.36-.34,.67-.52,.91-.28,.37-.57,.62-.85,.77-.28,.15-.55,.22-.84,.22-.1,0-.21,0-.32-.03-.25-.04-.46-.13-.65-.26-.15-.1-.28-.22-.41-.37-.19-.23-.36-.53-.48-.93-.12-.4-.2-.89-.2-1.47,0-.43,.04-.91,.14-1.44l-2.39-.42c-.12,.65-.17,1.27-.17,1.86,0,.71,.08,1.36,.24,1.97,.12,.45,.29,.88,.5,1.26,.32,.58,.75,1.08,1.26,1.45,.51,.38,1.11,.63,1.74,.74,.24,.04,.49,.07,.74,.07,.62,0,1.24-.14,1.8-.41,.42-.2,.82-.48,1.18-.81,.54-.5,.99-1.14,1.34-1.88,.36-.75,.63-1.6,.8-2.57l-2.39-.42h0Z"/><g><polygon class="c" points="93.48 334.58 93.48 334.58 93.48 334.58 93.48 334.58"/><path class="c" d="M97.37,334.02c-.05-.17-.12-.33-.21-.48-.14-.23-.33-.42-.54-.56-.21-.14-.44-.23-.66-.28h0c-.14-.03-.29-.05-.44-.05-.24,0-.49,.05-.72,.14-.18,.07-.34,.18-.49,.3-.22,.19-.39,.41-.52,.66-.13,.25-.23,.52-.29,.82-.06,.25-.09,.5-.09,.74,0,.23,.03,.46,.1,.69,.05,.17,.12,.33,.21,.48,.14,.23,.33,.42,.54,.56,.21,.14,.44,.23,.66,.28h0c.14,.03,.29,.05,.44,.05,.24,0,.49-.05,.72-.14,.18-.07,.34-.18,.49-.3,.22-.19,.39-.41,.52-.66,.13-.25,.23-.52,.29-.82h0c.06-.25,.09-.5,.09-.74,0-.23-.03-.46-.1-.69Z"/></g><g><polygon class="c" points="79.18 331.93 79.18 331.93 79.18 331.93 79.18 331.93"/><path class="c" d="M82.92,331.43c-.05-.16-.12-.32-.21-.46-.14-.22-.32-.4-.52-.54-.2-.14-.42-.22-.64-.27-.14-.03-.28-.05-.43-.05-.23,0-.46,.04-.69,.14-.17,.07-.33,.17-.47,.28-.21,.18-.38,.39-.5,.63-.13,.24-.22,.49-.28,.77-.05,.23-.08,.46-.08,.69,0,.22,.03,.44,.09,.66,.05,.16,.12,.32,.21,.46,.14,.22,.32,.4,.52,.54,.2,.14,.42,.22,.64,.27h0c.13,.03,.28,.05,.43,.05,.23,0,.46-.04,.69-.14,.17-.07,.33-.17,.47-.28,.21-.18,.38-.39,.5-.63,.13-.24,.22-.49,.28-.77h0c.05-.23,.08-.46,.08-.69,0-.22-.03-.44-.09-.66Z"/><polygon class="c" points="81.55 330.16 81.55 330.16 81.55 330.16 81.55 330.16"/></g></g><path class="c" d="M310.5,351.72c-.45-.5-.98-.97-1.56-1.39,.49-.88,1.21-2.29,1.94-4.02,.63-1.51,1.26-3.27,1.74-5.17,.48-1.9,.8-3.94,.8-6.01,0-1.53-.18-3.08-.61-4.59-.33-1.13-.8-2.24-1.44-3.3-.97-1.58-2.32-3.04-4.12-4.26-1.8-1.23-4.04-2.23-6.78-2.95h-.05c-2.16-.49-4.13-.71-5.93-.71-1.64,0-3.15,.19-4.51,.54-1.2,.31-2.29,.75-3.28,1.29-1.73,.96-3.14,2.24-4.25,3.73-.84,1.11-1.52,2.33-2.06,3.61-.82,1.92-1.35,3.97-1.67,6.03-.33,2.06-.45,4.11-.45,6.04,0,1.93,.12,3.73,.3,5.27,.09,.77,.19,1.47,.29,2.1,0,.05,.02,.1,.02,.15-.91,.07-1.73,.24-2.46,.5-.73,.26-1.37,.62-1.92,1.05-.83,.64-1.43,1.45-1.82,2.32-.39,.87-.57,1.79-.57,2.7,0,.54,.06,1.07,.18,1.59,.18,.8,.52,1.55,.97,2.2,.45,.66,1.02,1.23,1.67,1.69,.76,.54,1.57,.93,2.4,1.18,.83,.25,1.68,.36,2.52,.36,.7,0,1.4-.08,2.08-.22,.19,.63,.45,1.25,.79,1.84,.56,.99,1.34,1.89,2.36,2.6,1.01,.72,2.25,1.25,3.7,1.53,.78,.16,1.54,.23,2.26,.23,.85,0,1.67-.1,2.42-.3,1.33-.34,2.5-.95,3.49-1.74,.45-.36,.87-.75,1.25-1.17,.24,.17,.48,.33,.74,.48,.69,.41,1.45,.74,2.27,.97,.82,.23,1.69,.35,2.61,.35,.49,0,.99-.04,1.5-.11,1.1-.16,2.13-.51,3.04-1.02,1.37-.76,2.49-1.87,3.26-3.18,.78-1.3,1.21-2.81,1.21-4.37,0-1.1-.22-2.22-.68-3.31-.38-.9-.93-1.77-1.63-2.55Zm-22.54,.36c.18,.15,.28,.3,.35,.45,.08,.16,.11,.34,.12,.56,0,.23-.05,.5-.15,.81-.09,.27-.23,.56-.42,.86-.32,.53-.79,1.09-1.35,1.62-.73,.68-1.63,1.32-2.6,1.81,.01-.81,.13-1.63,.33-2.39,.16-.61,.37-1.18,.61-1.68,.18-.38,.39-.72,.6-1.02,.32-.44,.66-.78,.97-.98,.15-.1,.3-.17,.43-.21,.13-.04,.26-.06,.38-.06,.11,0,.23,.02,.35,.06,.12,.04,.24,.1,.39,.19Zm10.38,7.28c-.15,.46-.34,.92-.56,1.36-.58-.75-1.04-1.59-1.35-2.42-.34-.91-.51-1.81-.51-2.55,0-.37,.04-.7,.11-.98,.05-.21,.12-.38,.2-.52,.06-.11,.12-.19,.19-.26,.1-.11,.2-.19,.33-.25,.13-.06,.29-.11,.51-.12,.04,0,.07,0,.1,0,.12,0,.23,.01,.31,.04,.08,.02,.14,.05,.21,.08,.11,.06,.22,.15,.33,.29,.16,.2,.32,.51,.44,.93,.11,.41,.18,.92,.18,1.48,0,.89-.16,1.92-.5,2.93Zm11.64,.36c-.39,1.02-1.05,1.95-1.91,2.65-.86,.71-1.92,1.19-3.13,1.37-.4,.06-.79,.08-1.16,.08-.62,0-1.21-.07-1.75-.21-.91-.22-1.72-.62-2.44-1.13,.45-.78,.81-1.59,1.07-2.41,.4-1.23,.6-2.48,.61-3.64,0-.65-.06-1.27-.2-1.86-.1-.44-.25-.86-.44-1.26-.15-.3-.32-.58-.53-.83-.31-.38-.71-.72-1.18-.94-.47-.23-1-.35-1.54-.35-.09,0-.17,0-.26,0-.58,.04-1.14,.19-1.62,.46-.36,.2-.68,.47-.94,.77-.39,.45-.66,.99-.83,1.55-.17,.56-.24,1.16-.24,1.77,0,1.11,.24,2.3,.69,3.46,.34,.88,.79,1.74,1.36,2.56,.25,.36,.53,.71,.82,1.04-.07,.07-.13,.15-.2,.22-.64,.66-1.38,1.21-2.23,1.59-.85,.38-1.81,.6-2.92,.61-.56,0-1.15-.06-1.79-.18-1.03-.2-1.85-.54-2.52-.97-.5-.32-.92-.69-1.28-1.1-.53-.62-.91-1.34-1.16-2.13-.01-.04-.03-.09-.04-.13,.81-.35,1.58-.77,2.28-1.25,.61-.41,1.18-.87,1.69-1.36,.77-.73,1.41-1.52,1.88-2.36,.23-.42,.42-.85,.56-1.29,.13-.44,.21-.9,.21-1.37,0-.54-.11-1.08-.35-1.59-.24-.51-.6-.97-1.06-1.34l-.04-.03-.05-.03c-.33-.22-.68-.4-1.04-.51-.36-.12-.73-.18-1.1-.18-.46,0-.91,.09-1.33,.25-.36,.14-.7,.33-1.01,.56-.55,.4-1.02,.91-1.43,1.49-.62,.87-1.1,1.91-1.44,3.03-.34,1.13-.53,2.35-.53,3.6,0,.24,0,.48,.02,.72-.56,.12-1.11,.18-1.66,.18-.62,0-1.23-.08-1.81-.26-.58-.18-1.15-.44-1.68-.83-.43-.31-.8-.68-1.08-1.09-.29-.42-.49-.87-.6-1.36-.08-.34-.12-.7-.12-1.05,0-.53,.09-1.05,.28-1.53,.14-.36,.33-.69,.58-1,.38-.46,.89-.85,1.6-1.15,.71-.3,1.62-.49,2.79-.49,.17,0,.34,0,.52,.01l1.61,.07-.37-1.56c-.09-.39-.19-.89-.29-1.47-.29-1.74-.56-4.23-.56-6.97,0-2.12,.16-4.39,.58-6.58,.31-1.64,.78-3.24,1.42-4.7,.48-1.09,1.06-2.11,1.76-3.02,.52-.68,1.11-1.3,1.76-1.84,.99-.82,2.13-1.48,3.49-1.95,1.36-.46,2.94-.73,4.79-.73,1.59,0,3.38,.2,5.38,.64,2.23,.59,4.03,1.36,5.48,2.26,1.09,.67,1.97,1.42,2.7,2.21,1.09,1.19,1.81,2.49,2.28,3.89,.46,1.39,.66,2.87,.66,4.38,0,1.81-.29,3.66-.73,5.42-.66,2.63-1.66,5.03-2.5,6.77-.42,.87-.79,1.57-1.06,2.05-.13,.24-.24,.42-.32,.55-.04,.06-.06,.11-.08,.14l-.02,.03h0l-.67,1.09,1.11,.62c.81,.45,1.46,.99,1.99,1.57,.52,.58,.92,1.21,1.2,1.87,.33,.78,.48,1.58,.48,2.36,0,.74-.14,1.46-.4,2.15Z"/><g><path class="c" d="M294.44,336.36c-.12,.69-.3,1.28-.52,1.77-.16,.36-.34,.67-.52,.91-.28,.37-.57,.62-.85,.77-.28,.15-.55,.22-.84,.22-.1,0-.21,0-.32-.03-.25-.04-.46-.13-.65-.26-.15-.1-.28-.22-.41-.37-.19-.23-.36-.53-.48-.93-.12-.4-.2-.89-.2-1.47,0-.43,.04-.91,.14-1.44l-2.39-.42c-.12,.65-.17,1.27-.17,1.86,0,.71,.08,1.36,.24,1.97,.12,.45,.29,.88,.5,1.26,.32,.58,.75,1.08,1.26,1.45,.51,.38,1.11,.63,1.74,.74,.24,.04,.49,.07,.74,.07,.62,0,1.24-.14,1.8-.41,.42-.2,.82-.48,1.18-.81,.54-.5,.99-1.14,1.34-1.88,.36-.75,.63-1.6,.8-2.57l-2.39-.42h0Z"/><g><polygon class="c" points="297.97 334.58 297.97 334.58 297.97 334.58 297.97 334.58"/><path class="c" d="M301.85,334.02c-.05-.17-.12-.33-.21-.48-.14-.23-.33-.42-.54-.56-.21-.14-.44-.23-.66-.28h0c-.14-.03-.29-.05-.44-.05-.24,0-.49,.05-.72,.14-.18,.07-.34,.18-.49,.3-.22,.19-.39,.41-.52,.66-.13,.25-.23,.52-.29,.82-.06,.25-.09,.5-.09,.74,0,.23,.03,.46,.1,.69,.05,.17,.12,.33,.21,.48,.14,.23,.33,.42,.54,.56,.21,.14,.44,.23,.66,.28h0c.14,.03,.29,.05,.44,.05,.24,0,.49-.05,.72-.14,.18-.07,.34-.18,.49-.3,.22-.19,.39-.41,.52-.66,.13-.25,.23-.52,.29-.82h0c.06-.25,.09-.5,.09-.74,0-.23-.03-.46-.1-.69Z"/></g><g><polygon class="c" points="283.67 331.93 283.67 331.93 283.67 331.93 283.67 331.93"/><path class="c" d="M287.41,331.43c-.05-.16-.12-.32-.21-.46-.14-.22-.32-.4-.52-.54-.2-.14-.42-.22-.64-.27-.14-.03-.28-.05-.43-.05-.23,0-.46,.04-.69,.14-.17,.07-.33,.17-.47,.28-.21,.18-.38,.39-.5,.63-.13,.24-.22,.49-.28,.77-.05,.23-.08,.46-.08,.69,0,.22,.03,.44,.09,.66,.05,.16,.12,.32,.21,.46,.14,.22,.32,.4,.52,.54,.2,.14,.42,.22,.64,.27h0c.13,.03,.28,.05,.43,.05,.23,0,.46-.04,.69-.14,.17-.07,.33-.17,.47-.28,.21-.18,.38-.39,.5-.63,.13-.24,.22-.49,.28-.77h0c.05-.23,.08-.46,.08-.69,0-.22-.03-.44-.09-.66Z"/><polygon class="c" points="286.04 330.16 286.04 330.16 286.04 330.16 286.04 330.16"/></g></g><path class="c" d="M513.13,351.72c-.45-.5-.98-.97-1.56-1.39,.49-.88,1.21-2.29,1.94-4.02,.63-1.51,1.26-3.27,1.74-5.17,.48-1.9,.8-3.94,.8-6.01,0-1.53-.18-3.08-.61-4.59-.33-1.13-.8-2.24-1.44-3.3-.97-1.58-2.32-3.04-4.12-4.26-1.8-1.23-4.04-2.23-6.78-2.95h-.05c-2.16-.49-4.13-.71-5.93-.71-1.64,0-3.15,.19-4.51,.54-1.2,.31-2.29,.75-3.28,1.29-1.73,.96-3.14,2.24-4.25,3.73-.84,1.11-1.52,2.33-2.06,3.61-.82,1.92-1.35,3.97-1.67,6.03-.33,2.06-.45,4.11-.45,6.04,0,1.93,.12,3.73,.3,5.27,.09,.77,.19,1.47,.29,2.1,0,.05,.02,.1,.02,.15-.91,.07-1.73,.24-2.46,.5-.73,.26-1.37,.62-1.92,1.05-.83,.64-1.43,1.45-1.82,2.32-.39,.87-.57,1.79-.57,2.7,0,.54,.06,1.07,.18,1.59,.18,.8,.52,1.55,.97,2.2,.45,.66,1.02,1.23,1.67,1.69,.76,.54,1.57,.93,2.4,1.18,.83,.25,1.68,.36,2.52,.36,.7,0,1.4-.08,2.08-.22,.19,.63,.45,1.25,.79,1.84,.56,.99,1.34,1.89,2.36,2.6,1.01,.72,2.25,1.25,3.7,1.53,.78,.16,1.54,.23,2.26,.23,.85,0,1.67-.1,2.42-.3,1.33-.34,2.5-.95,3.49-1.74,.45-.36,.87-.75,1.25-1.17,.24,.17,.48,.33,.74,.48,.69,.41,1.45,.74,2.27,.97,.82,.23,1.69,.35,2.61,.35,.49,0,.99-.04,1.5-.11,1.1-.16,2.13-.51,3.04-1.02,1.37-.76,2.49-1.87,3.26-3.18,.78-1.3,1.21-2.81,1.21-4.37,0-1.1-.22-2.22-.68-3.31-.38-.9-.93-1.77-1.63-2.55Zm-22.54,.36c.18,.15,.28,.3,.35,.45,.08,.16,.11,.34,.12,.56,0,.23-.05,.5-.15,.81-.09,.27-.23,.56-.42,.86-.32,.53-.79,1.09-1.35,1.62-.73,.68-1.63,1.32-2.6,1.81,.01-.81,.13-1.63,.33-2.39,.16-.61,.37-1.18,.61-1.68,.18-.38,.39-.72,.6-1.02,.32-.44,.66-.78,.97-.98,.15-.1,.3-.17,.43-.21,.13-.04,.26-.06,.38-.06,.11,0,.23,.02,.35,.06,.12,.04,.24,.1,.39,.19Zm10.38,7.28c-.15,.46-.34,.92-.56,1.36-.58-.75-1.04-1.59-1.35-2.42-.34-.91-.51-1.81-.51-2.55,0-.37,.04-.7,.11-.98,.05-.21,.12-.38,.2-.52,.06-.11,.12-.19,.19-.26,.1-.11,.2-.19,.33-.25,.13-.06,.29-.11,.51-.12,.04,0,.07,0,.1,0,.12,0,.23,.01,.31,.04,.08,.02,.14,.05,.21,.08,.11,.06,.22,.15,.33,.29,.16,.2,.32,.51,.44,.93,.11,.41,.18,.92,.18,1.48,0,.89-.16,1.92-.5,2.93Zm11.64,.36c-.39,1.02-1.05,1.95-1.91,2.65-.86,.71-1.92,1.19-3.13,1.37-.4,.06-.79,.08-1.16,.08-.62,0-1.21-.07-1.75-.21-.91-.22-1.72-.62-2.44-1.13,.45-.78,.81-1.59,1.07-2.41,.4-1.23,.6-2.48,.61-3.64,0-.65-.06-1.27-.2-1.86-.1-.44-.25-.86-.44-1.26-.15-.3-.32-.58-.53-.83-.31-.38-.71-.72-1.18-.94-.47-.23-1-.35-1.54-.35-.09,0-.17,0-.26,0-.58,.04-1.14,.19-1.62,.46-.36,.2-.68,.47-.94,.77-.39,.45-.66,.99-.83,1.55-.17,.56-.24,1.16-.24,1.77,0,1.11,.24,2.3,.69,3.46,.34,.88,.79,1.74,1.36,2.56,.25,.36,.53,.71,.82,1.04-.07,.07-.13,.15-.2,.22-.64,.66-1.38,1.21-2.23,1.59-.85,.38-1.81,.6-2.92,.61-.56,0-1.15-.06-1.79-.18-1.03-.2-1.85-.54-2.52-.97-.5-.32-.92-.69-1.28-1.1-.53-.62-.91-1.34-1.16-2.13-.01-.04-.03-.09-.04-.13,.81-.35,1.58-.77,2.28-1.25,.61-.41,1.18-.87,1.69-1.36,.77-.73,1.41-1.52,1.88-2.36,.23-.42,.42-.85,.56-1.29,.13-.44,.21-.9,.21-1.37,0-.54-.11-1.08-.35-1.59-.24-.51-.6-.97-1.06-1.34l-.04-.03-.05-.03c-.33-.22-.68-.4-1.04-.51-.36-.12-.73-.18-1.1-.18-.46,0-.91,.09-1.33,.25-.36,.14-.7,.33-1.01,.56-.55,.4-1.02,.91-1.43,1.49-.62,.87-1.1,1.91-1.44,3.03-.34,1.13-.53,2.35-.53,3.6,0,.24,0,.48,.02,.72-.56,.12-1.11,.18-1.66,.18-.62,0-1.23-.08-1.81-.26-.58-.18-1.15-.44-1.68-.83-.43-.31-.8-.68-1.08-1.09-.29-.42-.49-.87-.6-1.36-.08-.34-.12-.7-.12-1.05,0-.53,.09-1.05,.28-1.53,.14-.36,.33-.69,.58-1,.38-.46,.89-.85,1.6-1.15,.71-.3,1.62-.49,2.79-.49,.17,0,.34,0,.52,.01l1.61,.07-.37-1.56c-.09-.39-.19-.89-.29-1.47-.29-1.74-.56-4.23-.56-6.97,0-2.12,.16-4.39,.58-6.58,.31-1.64,.78-3.24,1.42-4.7,.48-1.09,1.06-2.11,1.76-3.02,.52-.68,1.11-1.3,1.76-1.84,.99-.82,2.13-1.48,3.49-1.95,1.36-.46,2.94-.73,4.79-.73,1.59,0,3.38,.2,5.38,.64,2.23,.59,4.03,1.36,5.48,2.26,1.09,.67,1.97,1.42,2.7,2.21,1.09,1.19,1.81,2.49,2.28,3.89,.46,1.39,.66,2.87,.66,4.38,0,1.81-.29,3.66-.73,5.42-.66,2.63-1.66,5.03-2.5,6.77-.42,.87-.79,1.57-1.06,2.05-.13,.24-.24,.42-.32,.55-.04,.06-.06,.11-.08,.14l-.02,.03h0l-.67,1.09,1.11,.62c.81,.45,1.46,.99,1.99,1.57,.52,.58,.92,1.21,1.2,1.87,.33,.78,.48,1.58,.48,2.36,0,.74-.14,1.46-.4,2.15Z"/><g><path class="c" d="M497.07,336.36c-.12,.69-.3,1.28-.52,1.77-.16,.36-.34,.67-.52,.91-.28,.37-.57,.62-.85,.77-.28,.15-.55,.22-.84,.22-.1,0-.21,0-.32-.03-.25-.04-.46-.13-.65-.26-.15-.1-.28-.22-.41-.37-.19-.23-.36-.53-.48-.93-.12-.4-.2-.89-.2-1.47,0-.43,.04-.91,.14-1.44l-2.39-.42c-.12,.65-.17,1.27-.17,1.86,0,.71,.08,1.36,.24,1.97,.12,.45,.29,.88,.5,1.26,.32,.58,.75,1.08,1.26,1.45,.51,.38,1.11,.63,1.74,.74,.24,.04,.49,.07,.74,.07,.62,0,1.24-.14,1.8-.41,.42-.2,.82-.48,1.18-.81,.54-.5,.99-1.14,1.34-1.88,.36-.75,.63-1.6,.8-2.57l-2.39-.42h0Z"/><g><polygon class="c" points="500.6 334.58 500.6 334.58 500.6 334.58 500.6 334.58"/><path class="c" d="M504.48,334.02c-.05-.17-.12-.33-.21-.48-.14-.23-.33-.42-.54-.56-.21-.14-.44-.23-.66-.28h0c-.14-.03-.29-.05-.44-.05-.24,0-.49,.05-.72,.14-.18,.07-.34,.18-.49,.3-.22,.19-.39,.41-.52,.66-.13,.25-.23,.52-.29,.82-.06,.25-.09,.5-.09,.74,0,.23,.03,.46,.1,.69,.05,.17,.12,.33,.21,.48,.14,.23,.33,.42,.54,.56,.21,.14,.44,.23,.66,.28h0c.14,.03,.29,.05,.44,.05,.24,0,.49-.05,.72-.14,.18-.07,.34-.18,.49-.3,.22-.19,.39-.41,.52-.66,.13-.25,.23-.52,.29-.82h0c.06-.25,.09-.5,.09-.74,0-.23-.03-.46-.1-.69Z"/></g><g><polygon class="c" points="486.29 331.93 486.29 331.93 486.29 331.93 486.29 331.93"/><path class="c" d="M490.03,331.43c-.05-.16-.12-.32-.21-.46-.14-.22-.32-.4-.52-.54-.2-.14-.42-.22-.64-.27-.14-.03-.28-.05-.43-.05-.23,0-.46,.04-.69,.14-.17,.07-.33,.17-.47,.28-.21,.18-.38,.39-.5,.63-.13,.24-.22,.49-.28,.77-.05,.23-.08,.46-.08,.69,0,.22,.03,.44,.09,.66,.05,.16,.12,.32,.21,.46,.14,.22,.32,.4,.52,.54,.2,.14,.42,.22,.64,.27h0c.13,.03,.28,.05,.43,.05,.23,0,.46-.04,.69-.14,.17-.07,.33-.17,.47-.28,.21-.18,.38-.39,.5-.63,.13-.24,.22-.49,.28-.77h0c.05-.23,.08-.46,.08-.69,0-.22-.03-.44-.09-.66Z"/><polygon class="c" points="488.66 330.16 488.66 330.16 488.66 330.16 488.66 330.16"/></g></g><path class="c" d="M106.02,208.39c-.45-.5-.98-.97-1.56-1.39,.49-.88,1.21-2.29,1.94-4.02,.63-1.51,1.26-3.27,1.74-5.17,.48-1.9,.8-3.94,.8-6.01,0-1.53-.18-3.08-.61-4.59-.33-1.13-.8-2.24-1.44-3.3-.97-1.58-2.32-3.04-4.12-4.26-1.8-1.23-4.04-2.23-6.78-2.95h-.05c-2.16-.49-4.13-.71-5.93-.71-1.64,0-3.15,.19-4.51,.54-1.2,.31-2.29,.75-3.28,1.29-1.73,.96-3.14,2.24-4.25,3.73-.84,1.11-1.52,2.33-2.06,3.61-.82,1.92-1.35,3.97-1.67,6.03-.33,2.06-.45,4.11-.45,6.04,0,1.93,.12,3.73,.3,5.27,.09,.77,.19,1.47,.29,2.1,0,.05,.02,.1,.02,.15-.91,.07-1.73,.24-2.46,.5-.73,.26-1.37,.62-1.92,1.05-.83,.64-1.43,1.45-1.82,2.32-.39,.87-.57,1.79-.57,2.7,0,.54,.06,1.07,.18,1.59,.18,.8,.52,1.55,.97,2.2,.45,.66,1.02,1.23,1.67,1.69,.76,.54,1.57,.93,2.4,1.18,.83,.25,1.68,.36,2.52,.36,.7,0,1.4-.08,2.08-.22,.19,.63,.45,1.25,.79,1.84,.56,.99,1.34,1.89,2.36,2.6,1.01,.72,2.25,1.25,3.7,1.53,.78,.16,1.54,.23,2.26,.23,.85,0,1.67-.1,2.42-.3,1.33-.34,2.5-.95,3.49-1.74,.45-.36,.87-.75,1.25-1.17,.24,.17,.48,.33,.74,.48,.69,.41,1.45,.74,2.27,.97,.82,.23,1.69,.35,2.61,.35,.49,0,.99-.04,1.5-.11,1.1-.16,2.13-.51,3.04-1.02,1.37-.76,2.49-1.87,3.26-3.18,.78-1.3,1.21-2.81,1.21-4.37,0-1.1-.22-2.22-.68-3.31-.38-.9-.93-1.77-1.63-2.55Zm-22.54,.36c.18,.15,.28,.3,.35,.45,.08,.16,.11,.34,.12,.56,0,.23-.05,.5-.15,.81-.09,.27-.23,.56-.42,.86-.32,.53-.79,1.09-1.35,1.62-.73,.68-1.63,1.32-2.6,1.81,.01-.81,.13-1.63,.33-2.39,.16-.61,.37-1.18,.61-1.68,.18-.38,.39-.72,.6-1.02,.32-.44,.66-.78,.97-.98,.15-.1,.3-.17,.43-.21,.13-.04,.26-.06,.38-.06,.11,0,.23,.02,.35,.06,.12,.04,.24,.1,.39,.19Zm10.38,7.28c-.15,.46-.34,.92-.56,1.36-.58-.75-1.04-1.59-1.35-2.42-.34-.91-.51-1.81-.51-2.55,0-.37,.04-.7,.11-.98,.05-.21,.12-.38,.2-.52,.06-.11,.12-.19,.19-.26,.1-.11,.2-.19,.33-.25,.13-.06,.29-.11,.51-.12,.04,0,.07,0,.1,0,.12,0,.23,.01,.31,.04,.08,.02,.14,.05,.21,.08,.11,.06,.22,.15,.33,.29,.16,.2,.32,.51,.44,.93,.11,.41,.18,.92,.18,1.48,0,.89-.16,1.92-.5,2.93Zm11.64,.36c-.39,1.02-1.05,1.95-1.91,2.65-.86,.71-1.92,1.19-3.13,1.37-.4,.06-.79,.08-1.16,.08-.62,0-1.21-.07-1.75-.21-.91-.22-1.72-.62-2.44-1.13,.45-.78,.81-1.59,1.07-2.41,.4-1.23,.6-2.48,.61-3.64,0-.65-.06-1.27-.2-1.86-.1-.44-.25-.86-.44-1.26-.15-.3-.32-.58-.53-.83-.31-.38-.71-.72-1.18-.94-.47-.23-1-.35-1.54-.35-.09,0-.17,0-.26,0-.58,.04-1.14,.19-1.62,.46-.36,.2-.68,.47-.94,.77-.39,.45-.66,.99-.83,1.55-.17,.56-.24,1.16-.24,1.77,0,1.11,.24,2.3,.69,3.46,.34,.88,.79,1.74,1.36,2.56,.25,.36,.53,.71,.82,1.04-.07,.07-.13,.15-.2,.22-.64,.66-1.38,1.21-2.23,1.59-.85,.38-1.81,.6-2.92,.61-.56,0-1.15-.06-1.79-.18-1.03-.2-1.85-.54-2.52-.97-.5-.32-.92-.69-1.28-1.1-.53-.62-.91-1.34-1.16-2.13-.01-.04-.03-.09-.04-.13,.81-.35,1.58-.77,2.28-1.25,.61-.41,1.18-.87,1.69-1.36,.77-.73,1.41-1.52,1.88-2.36,.23-.42,.42-.85,.56-1.29,.13-.44,.21-.9,.21-1.37,0-.54-.11-1.08-.35-1.59-.24-.51-.6-.97-1.06-1.34l-.04-.03-.05-.03c-.33-.22-.68-.4-1.04-.51-.36-.12-.73-.18-1.1-.18-.46,0-.91,.09-1.33,.25-.36,.14-.7,.33-1.01,.56-.55,.4-1.02,.91-1.43,1.49-.62,.87-1.1,1.91-1.44,3.03-.34,1.13-.53,2.35-.53,3.6,0,.24,0,.48,.02,.72-.56,.12-1.11,.18-1.66,.18-.62,0-1.23-.08-1.81-.26-.58-.18-1.15-.44-1.68-.83-.43-.31-.8-.68-1.08-1.09-.29-.42-.49-.87-.6-1.36-.08-.34-.12-.7-.12-1.05,0-.53,.09-1.05,.28-1.53,.14-.36,.33-.69,.58-1,.38-.46,.89-.85,1.6-1.15,.71-.3,1.62-.49,2.79-.49,.17,0,.34,0,.52,.01l1.61,.07-.37-1.56c-.09-.39-.19-.89-.29-1.47-.29-1.74-.56-4.23-.56-6.97,0-2.12,.16-4.39,.58-6.58,.31-1.64,.78-3.24,1.42-4.7,.48-1.09,1.06-2.11,1.76-3.02,.52-.68,1.11-1.3,1.76-1.84,.99-.82,2.13-1.48,3.49-1.95,1.36-.46,2.94-.73,4.79-.73,1.59,0,3.38,.2,5.38,.64,2.23,.59,4.03,1.36,5.48,2.26,1.09,.67,1.97,1.42,2.7,2.21,1.09,1.19,1.81,2.49,2.28,3.89,.46,1.39,.66,2.87,.66,4.38,0,1.81-.29,3.66-.73,5.42-.66,2.63-1.66,5.03-2.5,6.77-.42,.87-.79,1.57-1.06,2.05-.13,.24-.24,.42-.32,.55-.04,.06-.06,.11-.08,.14l-.02,.03h0l-.67,1.09,1.11,.62c.81,.45,1.46,.99,1.99,1.57,.52,.58,.92,1.21,1.2,1.87,.33,.78,.48,1.58,.48,2.36,0,.74-.14,1.46-.4,2.15Z"/><g><path class="c" d="M89.96,193.03c-.12,.69-.3,1.28-.52,1.77-.16,.36-.34,.67-.52,.91-.28,.37-.57,.62-.85,.77-.28,.15-.55,.22-.84,.22-.1,0-.21,0-.32-.03-.25-.04-.46-.13-.65-.26-.15-.1-.28-.22-.41-.37-.19-.23-.36-.53-.48-.93-.12-.4-.2-.89-.2-1.47,0-.43,.04-.91,.14-1.44l-2.39-.42c-.12,.65-.17,1.27-.17,1.86,0,.71,.08,1.36,.24,1.97,.12,.45,.29,.88,.5,1.26,.32,.58,.75,1.08,1.26,1.45,.51,.38,1.11,.63,1.74,.74,.24,.04,.49,.07,.74,.07,.62,0,1.24-.14,1.8-.41,.42-.2,.82-.48,1.18-.81,.54-.5,.99-1.14,1.34-1.88,.36-.75,.63-1.6,.8-2.57l-2.39-.42h0Z"/><g><polygon class="c" points="93.48 191.25 93.48 191.25 93.48 191.25 93.48 191.25"/><path class="c" d="M97.37,190.7c-.05-.17-.12-.33-.21-.48-.14-.23-.33-.42-.54-.56-.21-.14-.44-.23-.66-.28h0c-.14-.03-.29-.05-.44-.05-.24,0-.49,.05-.72,.14-.18,.07-.34,.18-.49,.3-.22,.19-.39,.41-.52,.66-.13,.25-.23,.52-.29,.82-.06,.25-.09,.5-.09,.74,0,.23,.03,.46,.1,.69,.05,.17,.12,.33,.21,.48,.14,.23,.33,.42,.54,.56,.21,.14,.44,.23,.66,.28h0c.14,.03,.29,.05,.44,.05,.24,0,.49-.05,.72-.14,.18-.07,.34-.18,.49-.3,.22-.19,.39-.41,.52-.66,.13-.25,.23-.52,.29-.82h0c.06-.25,.09-.5,.09-.74,0-.23-.03-.46-.1-.69Z"/></g><g><polygon class="c" points="79.18 188.61 79.18 188.61 79.18 188.61 79.18 188.61"/><path class="c" d="M82.92,188.11c-.05-.16-.12-.32-.21-.46-.14-.22-.32-.4-.52-.54-.2-.14-.42-.22-.64-.27-.14-.03-.28-.05-.43-.05-.23,0-.46,.04-.69,.14-.17,.07-.33,.17-.47,.28-.21,.18-.38,.39-.5,.63-.13,.24-.22,.49-.28,.77-.05,.23-.08,.46-.08,.69,0,.22,.03,.44,.09,.66,.05,.16,.12,.32,.21,.46,.14,.22,.32,.4,.52,.54,.2,.14,.42,.22,.64,.27h0c.13,.03,.28,.05,.43,.05,.23,0,.46-.04,.69-.14,.17-.07,.33-.17,.47-.28,.21-.18,.38-.39,.5-.63,.13-.24,.22-.49,.28-.77h0c.05-.23,.08-.46,.08-.69,0-.22-.03-.44-.09-.66Z"/><polygon class="c" points="81.55 186.84 81.55 186.84 81.55 186.84 81.55 186.84"/></g></g><path class="c" d="M310.5,208.39c-.45-.5-.98-.97-1.56-1.39,.49-.88,1.21-2.29,1.94-4.02,.63-1.51,1.26-3.27,1.74-5.17,.48-1.9,.8-3.94,.8-6.01,0-1.53-.18-3.08-.61-4.59-.33-1.13-.8-2.24-1.44-3.3-.97-1.58-2.32-3.04-4.12-4.26-1.8-1.23-4.04-2.23-6.78-2.95h-.05c-2.16-.49-4.13-.71-5.93-.71-1.64,0-3.15,.19-4.51,.54-1.2,.31-2.29,.75-3.28,1.29-1.73,.96-3.14,2.24-4.25,3.73-.84,1.11-1.52,2.33-2.06,3.61-.82,1.92-1.35,3.97-1.67,6.03-.33,2.06-.45,4.11-.45,6.04,0,1.93,.12,3.73,.3,5.27,.09,.77,.19,1.47,.29,2.1,0,.05,.02,.1,.02,.15-.91,.07-1.73,.24-2.46,.5-.73,.26-1.37,.62-1.92,1.05-.83,.64-1.43,1.45-1.82,2.32-.39,.87-.57,1.79-.57,2.7,0,.54,.06,1.07,.18,1.59,.18,.8,.52,1.55,.97,2.2,.45,.66,1.02,1.23,1.67,1.69,.76,.54,1.57,.93,2.4,1.18,.83,.25,1.68,.36,2.52,.36,.7,0,1.4-.08,2.08-.22,.19,.63,.45,1.25,.79,1.84,.56,.99,1.34,1.89,2.36,2.6,1.01,.72,2.25,1.25,3.7,1.53,.78,.16,1.54,.23,2.26,.23,.85,0,1.67-.1,2.42-.3,1.33-.34,2.5-.95,3.49-1.74,.45-.36,.87-.75,1.25-1.17,.24,.17,.48,.33,.74,.48,.69,.41,1.45,.74,2.27,.97,.82,.23,1.69,.35,2.61,.35,.49,0,.99-.04,1.5-.11,1.1-.16,2.13-.51,3.04-1.02,1.37-.76,2.49-1.87,3.26-3.18,.78-1.3,1.21-2.81,1.21-4.37,0-1.1-.22-2.22-.68-3.31-.38-.9-.93-1.77-1.63-2.55Zm-22.54,.36c.18,.15,.28,.3,.35,.45,.08,.16,.11,.34,.12,.56,0,.23-.05,.5-.15,.81-.09,.27-.23,.56-.42,.86-.32,.53-.79,1.09-1.35,1.62-.73,.68-1.63,1.32-2.6,1.81,.01-.81,.13-1.63,.33-2.39,.16-.61,.37-1.18,.61-1.68,.18-.38,.39-.72,.6-1.02,.32-.44,.66-.78,.97-.98,.15-.1,.3-.17,.43-.21,.13-.04,.26-.06,.38-.06,.11,0,.23,.02,.35,.06,.12,.04,.24,.1,.39,.19Zm10.38,7.28c-.15,.46-.34,.92-.56,1.36-.58-.75-1.04-1.59-1.35-2.42-.34-.91-.51-1.81-.51-2.55,0-.37,.04-.7,.11-.98,.05-.21,.12-.38,.2-.52,.06-.11,.12-.19,.19-.26,.1-.11,.2-.19,.33-.25,.13-.06,.29-.11,.51-.12,.04,0,.07,0,.1,0,.12,0,.23,.01,.31,.04,.08,.02,.14,.05,.21,.08,.11,.06,.22,.15,.33,.29,.16,.2,.32,.51,.44,.93,.11,.41,.18,.92,.18,1.48,0,.89-.16,1.92-.5,2.93Zm11.64,.36c-.39,1.02-1.05,1.95-1.91,2.65-.86,.71-1.92,1.19-3.13,1.37-.4,.06-.79,.08-1.16,.08-.62,0-1.21-.07-1.75-.21-.91-.22-1.72-.62-2.44-1.13,.45-.78,.81-1.59,1.07-2.41,.4-1.23,.6-2.48,.61-3.64,0-.65-.06-1.27-.2-1.86-.1-.44-.25-.86-.44-1.26-.15-.3-.32-.58-.53-.83-.31-.38-.71-.72-1.18-.94-.47-.23-1-.35-1.54-.35-.09,0-.17,0-.26,0-.58,.04-1.14,.19-1.62,.46-.36,.2-.68,.47-.94,.77-.39,.45-.66,.99-.83,1.55-.17,.56-.24,1.16-.24,1.77,0,1.11,.24,2.3,.69,3.46,.34,.88,.79,1.74,1.36,2.56,.25,.36,.53,.71,.82,1.04-.07,.07-.13,.15-.2,.22-.64,.66-1.38,1.21-2.23,1.59-.85,.38-1.81,.6-2.92,.61-.56,0-1.15-.06-1.79-.18-1.03-.2-1.85-.54-2.52-.97-.5-.32-.92-.69-1.28-1.1-.53-.62-.91-1.34-1.16-2.13-.01-.04-.03-.09-.04-.13,.81-.35,1.58-.77,2.28-1.25,.61-.41,1.18-.87,1.69-1.36,.77-.73,1.41-1.52,1.88-2.36,.23-.42,.42-.85,.56-1.29,.13-.44,.21-.9,.21-1.37,0-.54-.11-1.08-.35-1.59-.24-.51-.6-.97-1.06-1.34l-.04-.03-.05-.03c-.33-.22-.68-.4-1.04-.51-.36-.12-.73-.18-1.1-.18-.46,0-.91,.09-1.33,.25-.36,.14-.7,.33-1.01,.56-.55,.4-1.02,.91-1.43,1.49-.62,.87-1.1,1.91-1.44,3.03-.34,1.13-.53,2.35-.53,3.6,0,.24,0,.48,.02,.72-.56,.12-1.11,.18-1.66,.18-.62,0-1.23-.08-1.81-.26-.58-.18-1.15-.44-1.68-.83-.43-.31-.8-.68-1.08-1.09-.29-.42-.49-.87-.6-1.36-.08-.34-.12-.7-.12-1.05,0-.53,.09-1.05,.28-1.53,.14-.36,.33-.69,.58-1,.38-.46,.89-.85,1.6-1.15,.71-.3,1.62-.49,2.79-.49,.17,0,.34,0,.52,.01l1.61,.07-.37-1.56c-.09-.39-.19-.89-.29-1.47-.29-1.74-.56-4.23-.56-6.97,0-2.12,.16-4.39,.58-6.58,.31-1.64,.78-3.24,1.42-4.7,.48-1.09,1.06-2.11,1.76-3.02,.52-.68,1.11-1.3,1.76-1.84,.99-.82,2.13-1.48,3.49-1.95,1.36-.46,2.94-.73,4.79-.73,1.59,0,3.38,.2,5.38,.64,2.23,.59,4.03,1.36,5.48,2.26,1.09,.67,1.97,1.42,2.7,2.21,1.09,1.19,1.81,2.49,2.28,3.89,.46,1.39,.66,2.87,.66,4.38,0,1.81-.29,3.66-.73,5.42-.66,2.63-1.66,5.03-2.5,6.77-.42,.87-.79,1.57-1.06,2.05-.13,.24-.24,.42-.32,.55-.04,.06-.06,.11-.08,.14l-.02,.03h0l-.67,1.09,1.11,.62c.81,.45,1.46,.99,1.99,1.57,.52,.58,.92,1.21,1.2,1.87,.33,.78,.48,1.58,.48,2.36,0,.74-.14,1.46-.4,2.15Z"/><g><path class="c" d="M294.44,193.03c-.12,.69-.3,1.28-.52,1.77-.16,.36-.34,.67-.52,.91-.28,.37-.57,.62-.85,.77-.28,.15-.55,.22-.84,.22-.1,0-.21,0-.32-.03-.25-.04-.46-.13-.65-.26-.15-.1-.28-.22-.41-.37-.19-.23-.36-.53-.48-.93-.12-.4-.2-.89-.2-1.47,0-.43,.04-.91,.14-1.44l-2.39-.42c-.12,.65-.17,1.27-.17,1.86,0,.71,.08,1.36,.24,1.97,.12,.45,.29,.88,.5,1.26,.32,.58,.75,1.08,1.26,1.45,.51,.38,1.11,.63,1.74,.74,.24,.04,.49,.07,.74,.07,.62,0,1.24-.14,1.8-.41,.42-.2,.82-.48,1.18-.81,.54-.5,.99-1.14,1.34-1.88,.36-.75,.63-1.6,.8-2.57l-2.39-.42h0Z"/><g><polygon class="c" points="297.97 191.25 297.97 191.25 297.97 191.25 297.97 191.25"/><path class="c" d="M301.85,190.7c-.05-.17-.12-.33-.21-.48-.14-.23-.33-.42-.54-.56-.21-.14-.44-.23-.66-.28h0c-.14-.03-.29-.05-.44-.05-.24,0-.49,.05-.72,.14-.18,.07-.34,.18-.49,.3-.22,.19-.39,.41-.52,.66-.13,.25-.23,.52-.29,.82-.06,.25-.09,.5-.09,.74,0,.23,.03,.46,.1,.69,.05,.17,.12,.33,.21,.48,.14,.23,.33,.42,.54,.56,.21,.14,.44,.23,.66,.28h0c.14,.03,.29,.05,.44,.05,.24,0,.49-.05,.72-.14,.18-.07,.34-.18,.49-.3,.22-.19,.39-.41,.52-.66,.13-.25,.23-.52,.29-.82h0c.06-.25,.09-.5,.09-.74,0-.23-.03-.46-.1-.69Z"/></g><g><polygon class="c" points="283.67 188.61 283.67 188.61 283.67 188.61 283.67 188.61"/><path class="c" d="M287.41,188.11c-.05-.16-.12-.32-.21-.46-.14-.22-.32-.4-.52-.54-.2-.14-.42-.22-.64-.27-.14-.03-.28-.05-.43-.05-.23,0-.46,.04-.69,.14-.17,.07-.33,.17-.47,.28-.21,.18-.38,.39-.5,.63-.13,.24-.22,.49-.28,.77-.05,.23-.08,.46-.08,.69,0,.22,.03,.44,.09,.66,.05,.16,.12,.32,.21,.46,.14,.22,.32,.4,.52,.54,.2,.14,.42,.22,.64,.27h0c.13,.03,.28,.05,.43,.05,.23,0,.46-.04,.69-.14,.17-.07,.33-.17,.47-.28,.21-.18,.38-.39,.5-.63,.13-.24,.22-.49,.28-.77h0c.05-.23,.08-.46,.08-.69,0-.22-.03-.44-.09-.66Z"/><polygon class="c" points="286.04 186.84 286.04 186.84 286.04 186.84 286.04 186.84"/></g></g><path class="c" d="M513.13,208.39c-.45-.5-.98-.97-1.56-1.39,.49-.88,1.21-2.29,1.94-4.02,.63-1.51,1.26-3.27,1.74-5.17,.48-1.9,.8-3.94,.8-6.01,0-1.53-.18-3.08-.61-4.59-.33-1.13-.8-2.24-1.44-3.3-.97-1.58-2.32-3.04-4.12-4.26-1.8-1.23-4.04-2.23-6.78-2.95h-.05c-2.16-.49-4.13-.71-5.93-.71-1.64,0-3.15,.19-4.51,.54-1.2,.31-2.29,.75-3.28,1.29-1.73,.96-3.14,2.24-4.25,3.73-.84,1.11-1.52,2.33-2.06,3.61-.82,1.92-1.35,3.97-1.67,6.03-.33,2.06-.45,4.11-.45,6.04,0,1.93,.12,3.73,.3,5.27,.09,.77,.19,1.47,.29,2.1,0,.05,.02,.1,.02,.15-.91,.07-1.73,.24-2.46,.5-.73,.26-1.37,.62-1.92,1.05-.83,.64-1.43,1.45-1.82,2.32-.39,.87-.57,1.79-.57,2.7,0,.54,.06,1.07,.18,1.59,.18,.8,.52,1.55,.97,2.2,.45,.66,1.02,1.23,1.67,1.69,.76,.54,1.57,.93,2.4,1.18,.83,.25,1.68,.36,2.52,.36,.7,0,1.4-.08,2.08-.22,.19,.63,.45,1.25,.79,1.84,.56,.99,1.34,1.89,2.36,2.6,1.01,.72,2.25,1.25,3.7,1.53,.78,.16,1.54,.23,2.26,.23,.85,0,1.67-.1,2.42-.3,1.33-.34,2.5-.95,3.49-1.74,.45-.36,.87-.75,1.25-1.17,.24,.17,.48,.33,.74,.48,.69,.41,1.45,.74,2.27,.97,.82,.23,1.69,.35,2.61,.35,.49,0,.99-.04,1.5-.11,1.1-.16,2.13-.51,3.04-1.02,1.37-.76,2.49-1.87,3.26-3.18,.78-1.3,1.21-2.81,1.21-4.37,0-1.1-.22-2.22-.68-3.31-.38-.9-.93-1.77-1.63-2.55Zm-22.54,.36c.18,.15,.28,.3,.35,.45,.08,.16,.11,.34,.12,.56,0,.23-.05,.5-.15,.81-.09,.27-.23,.56-.42,.86-.32,.53-.79,1.09-1.35,1.62-.73,.68-1.63,1.32-2.6,1.81,.01-.81,.13-1.63,.33-2.39,.16-.61,.37-1.18,.61-1.68,.18-.38,.39-.72,.6-1.02,.32-.44,.66-.78,.97-.98,.15-.1,.3-.17,.43-.21,.13-.04,.26-.06,.38-.06,.11,0,.23,.02,.35,.06,.12,.04,.24,.1,.39,.19Zm10.38,7.28c-.15,.46-.34,.92-.56,1.36-.58-.75-1.04-1.59-1.35-2.42-.34-.91-.51-1.81-.51-2.55,0-.37,.04-.7,.11-.98,.05-.21,.12-.38,.2-.52,.06-.11,.12-.19,.19-.26,.1-.11,.2-.19,.33-.25,.13-.06,.29-.11,.51-.12,.04,0,.07,0,.1,0,.12,0,.23,.01,.31,.04,.08,.02,.14,.05,.21,.08,.11,.06,.22,.15,.33,.29,.16,.2,.32,.51,.44,.93,.11,.41,.18,.92,.18,1.48,0,.89-.16,1.92-.5,2.93Zm11.64,.36c-.39,1.02-1.05,1.95-1.91,2.65-.86,.71-1.92,1.19-3.13,1.37-.4,.06-.79,.08-1.16,.08-.62,0-1.21-.07-1.75-.21-.91-.22-1.72-.62-2.44-1.13,.45-.78,.81-1.59,1.07-2.41,.4-1.23,.6-2.48,.61-3.64,0-.65-.06-1.27-.2-1.86-.1-.44-.25-.86-.44-1.26-.15-.3-.32-.58-.53-.83-.31-.38-.71-.72-1.18-.94-.47-.23-1-.35-1.54-.35-.09,0-.17,0-.26,0-.58,.04-1.14,.19-1.62,.46-.36,.2-.68,.47-.94,.77-.39,.45-.66,.99-.83,1.55-.17,.56-.24,1.16-.24,1.77,0,1.11,.24,2.3,.69,3.46,.34,.88,.79,1.74,1.36,2.56,.25,.36,.53,.71,.82,1.04-.07,.07-.13,.15-.2,.22-.64,.66-1.38,1.21-2.23,1.59-.85,.38-1.81,.6-2.92,.61-.56,0-1.15-.06-1.79-.18-1.03-.2-1.85-.54-2.52-.97-.5-.32-.92-.69-1.28-1.1-.53-.62-.91-1.34-1.16-2.13-.01-.04-.03-.09-.04-.13,.81-.35,1.58-.77,2.28-1.25,.61-.41,1.18-.87,1.69-1.36,.77-.73,1.41-1.52,1.88-2.36,.23-.42,.42-.85,.56-1.29,.13-.44,.21-.9,.21-1.37,0-.54-.11-1.08-.35-1.59-.24-.51-.6-.97-1.06-1.34l-.04-.03-.05-.03c-.33-.22-.68-.4-1.04-.51-.36-.12-.73-.18-1.1-.18-.46,0-.91,.09-1.33,.25-.36,.14-.7,.33-1.01,.56-.55,.4-1.02,.91-1.43,1.49-.62,.87-1.1,1.91-1.44,3.03-.34,1.13-.53,2.35-.53,3.6,0,.24,0,.48,.02,.72-.56,.12-1.11,.18-1.66,.18-.62,0-1.23-.08-1.81-.26-.58-.18-1.15-.44-1.68-.83-.43-.31-.8-.68-1.08-1.09-.29-.42-.49-.87-.6-1.36-.08-.34-.12-.7-.12-1.05,0-.53,.09-1.05,.28-1.53,.14-.36,.33-.69,.58-1,.38-.46,.89-.85,1.6-1.15,.71-.3,1.62-.49,2.79-.49,.17,0,.34,0,.52,.01l1.61,.07-.37-1.56c-.09-.39-.19-.89-.29-1.47-.29-1.74-.56-4.23-.56-6.97,0-2.12,.16-4.39,.58-6.58,.31-1.64,.78-3.24,1.42-4.7,.48-1.09,1.06-2.11,1.76-3.02,.52-.68,1.11-1.3,1.76-1.84,.99-.82,2.13-1.48,3.49-1.95,1.36-.46,2.94-.73,4.79-.73,1.59,0,3.38,.2,5.38,.64,2.23,.59,4.03,1.36,5.48,2.26,1.09,.67,1.97,1.42,2.7,2.21,1.09,1.19,1.81,2.49,2.28,3.89,.46,1.39,.66,2.87,.66,4.38,0,1.81-.29,3.66-.73,5.42-.66,2.63-1.66,5.03-2.5,6.77-.42,.87-.79,1.57-1.06,2.05-.13,.24-.24,.42-.32,.55-.04,.06-.06,.11-.08,.14l-.02,.03h0l-.67,1.09,1.11,.62c.81,.45,1.46,.99,1.99,1.57,.52,.58,.92,1.21,1.2,1.87,.33,.78,.48,1.58,.48,2.36,0,.74-.14,1.46-.4,2.15Z"/><g><path class="c" d="M497.07,193.03c-.12,.69-.3,1.28-.52,1.77-.16,.36-.34,.67-.52,.91-.28,.37-.57,.62-.85,.77-.28,.15-.55,.22-.84,.22-.1,0-.21,0-.32-.03-.25-.04-.46-.13-.65-.26-.15-.1-.28-.22-.41-.37-.19-.23-.36-.53-.48-.93-.12-.4-.2-.89-.2-1.47,0-.43,.04-.91,.14-1.44l-2.39-.42c-.12,.65-.17,1.27-.17,1.86,0,.71,.08,1.36,.24,1.97,.12,.45,.29,.88,.5,1.26,.32,.58,.75,1.08,1.26,1.45,.51,.38,1.11,.63,1.74,.74,.24,.04,.49,.07,.74,.07,.62,0,1.24-.14,1.8-.41,.42-.2,.82-.48,1.18-.81,.54-.5,.99-1.14,1.34-1.88,.36-.75,.63-1.6,.8-2.57l-2.39-.42h0Z"/><g><polygon class="c" points="500.6 191.25 500.6 191.25 500.6 191.25 500.6 191.25"/><path class="c" d="M504.48,190.7c-.05-.17-.12-.33-.21-.48-.14-.23-.33-.42-.54-.56-.21-.14-.44-.23-.66-.28h0c-.14-.03-.29-.05-.44-.05-.24,0-.49,.05-.72,.14-.18,.07-.34,.18-.49,.3-.22,.19-.39,.41-.52,.66-.13,.25-.23,.52-.29,.82-.06,.25-.09,.5-.09,.74,0,.23,.03,.46,.1,.69,.05,.17,.12,.33,.21,.48,.14,.23,.33,.42,.54,.56,.21,.14,.44,.23,.66,.28h0c.14,.03,.29,.05,.44,.05,.24,0,.49-.05,.72-.14,.18-.07,.34-.18,.49-.3,.22-.19,.39-.41,.52-.66,.13-.25,.23-.52,.29-.82h0c.06-.25,.09-.5,.09-.74,0-.23-.03-.46-.1-.69Z"/></g><g><polygon class="c" points="486.29 188.61 486.29 188.61 486.29 188.61 486.29 188.61"/><path class="c" d="M490.03,188.11c-.05-.16-.12-.32-.21-.46-.14-.22-.32-.4-.52-.54-.2-.14-.42-.22-.64-.27-.14-.03-.28-.05-.43-.05-.23,0-.46,.04-.69,.14-.17,.07-.33,.17-.47,.28-.21,.18-.38,.39-.5,.63-.13,.24-.22,.49-.28,.77-.05,.23-.08,.46-.08,.69,0,.22,.03,.44,.09,.66,.05,.16,.12,.32,.21,.46,.14,.22,.32,.4,.52,.54,.2,.14,.42,.22,.64,.27h0c.13,.03,.28,.05,.43,.05,.23,0,.46-.04,.69-.14,.17-.07,.33-.17,.47-.28,.21-.18,.38-.39,.5-.63,.13-.24,.22-.49,.28-.77h0c.05-.23,.08-.46,.08-.69,0-.22-.03-.44-.09-.66Z"/><polygon class="c" points="488.66 186.84 488.66 186.84 488.66 186.84 488.66 186.84"/></g></g><path class="c" d="M106.02,66.48c-.45-.5-.98-.97-1.56-1.39,.49-.88,1.21-2.29,1.94-4.02,.63-1.51,1.26-3.27,1.74-5.17,.48-1.9,.8-3.94,.8-6.01,0-1.53-.18-3.08-.61-4.59-.33-1.13-.8-2.24-1.44-3.3-.97-1.58-2.32-3.04-4.12-4.26-1.8-1.23-4.04-2.23-6.78-2.95h-.05c-2.16-.49-4.13-.71-5.93-.71-1.64,0-3.15,.19-4.51,.54-1.2,.31-2.29,.75-3.28,1.29-1.73,.96-3.14,2.24-4.25,3.73-.84,1.11-1.52,2.33-2.06,3.61-.82,1.92-1.35,3.97-1.67,6.03-.33,2.06-.45,4.11-.45,6.04,0,1.93,.12,3.73,.3,5.27,.09,.77,.19,1.47,.29,2.1,0,.05,.02,.1,.02,.15-.91,.07-1.73,.24-2.46,.5-.73,.26-1.37,.62-1.92,1.05-.83,.64-1.43,1.45-1.82,2.32-.39,.87-.57,1.79-.57,2.7,0,.54,.06,1.07,.18,1.59,.18,.8,.52,1.55,.97,2.2,.45,.66,1.02,1.23,1.67,1.69,.76,.54,1.57,.93,2.4,1.18,.83,.25,1.68,.36,2.52,.36,.7,0,1.4-.08,2.08-.22,.19,.63,.45,1.25,.79,1.84,.56,.99,1.34,1.89,2.36,2.6,1.01,.72,2.25,1.25,3.7,1.53,.78,.16,1.54,.23,2.26,.23,.85,0,1.67-.1,2.42-.3,1.33-.34,2.5-.95,3.49-1.74,.45-.36,.87-.75,1.25-1.17,.24,.17,.48,.33,.74,.48,.69,.41,1.45,.74,2.27,.97,.82,.23,1.69,.35,2.61,.35,.49,0,.99-.04,1.5-.11,1.1-.16,2.13-.51,3.04-1.02,1.37-.76,2.49-1.87,3.26-3.18,.78-1.3,1.21-2.81,1.21-4.37,0-1.1-.22-2.22-.68-3.31-.38-.9-.93-1.77-1.63-2.55Zm-22.54,.36c.18,.15,.28,.3,.35,.45,.08,.16,.11,.34,.12,.56,0,.23-.05,.5-.15,.81-.09,.27-.23,.56-.42,.86-.32,.53-.79,1.09-1.35,1.62-.73,.68-1.63,1.32-2.6,1.81,.01-.81,.13-1.63,.33-2.39,.16-.61,.37-1.18,.61-1.68,.18-.38,.39-.72,.6-1.02,.32-.44,.66-.78,.97-.98,.15-.1,.3-.17,.43-.21,.13-.04,.26-.06,.38-.06,.11,0,.23,.02,.35,.06,.12,.04,.24,.1,.39,.19Zm10.38,7.28c-.15,.46-.34,.92-.56,1.36-.58-.75-1.04-1.59-1.35-2.42-.34-.91-.51-1.81-.51-2.55,0-.37,.04-.7,.11-.98,.05-.21,.12-.38,.2-.52,.06-.11,.12-.19,.19-.26,.1-.11,.2-.19,.33-.25,.13-.06,.29-.11,.51-.12,.04,0,.07,0,.1,0,.12,0,.23,.01,.31,.04,.08,.02,.14,.05,.21,.08,.11,.06,.22,.15,.33,.29,.16,.2,.32,.51,.44,.93,.11,.41,.18,.92,.18,1.48,0,.89-.16,1.92-.5,2.93Zm11.64,.36c-.39,1.02-1.05,1.95-1.91,2.65-.86,.71-1.92,1.19-3.13,1.37-.4,.06-.79,.08-1.16,.08-.62,0-1.21-.07-1.75-.21-.91-.22-1.72-.62-2.44-1.13,.45-.78,.81-1.59,1.07-2.41,.4-1.23,.6-2.48,.61-3.64,0-.65-.06-1.27-.2-1.86-.1-.44-.25-.86-.44-1.26-.15-.3-.32-.58-.53-.83-.31-.38-.71-.72-1.18-.94-.47-.23-1-.35-1.54-.35-.09,0-.17,0-.26,0-.58,.04-1.14,.19-1.62,.46-.36,.2-.68,.47-.94,.77-.39,.45-.66,.99-.83,1.55-.17,.56-.24,1.16-.24,1.77,0,1.11,.24,2.3,.69,3.46,.34,.88,.79,1.74,1.36,2.56,.25,.36,.53,.71,.82,1.04-.07,.07-.13,.15-.2,.22-.64,.66-1.38,1.21-2.23,1.59-.85,.38-1.81,.6-2.92,.61-.56,0-1.15-.06-1.79-.18-1.03-.2-1.85-.54-2.52-.97-.5-.32-.92-.69-1.28-1.1-.53-.62-.91-1.34-1.16-2.13-.01-.04-.03-.09-.04-.13,.81-.35,1.58-.77,2.28-1.25,.61-.41,1.18-.87,1.69-1.36,.77-.73,1.41-1.52,1.88-2.36,.23-.42,.42-.85,.56-1.29,.13-.44,.21-.9,.21-1.37,0-.54-.11-1.08-.35-1.59-.24-.51-.6-.97-1.06-1.34l-.04-.03-.05-.03c-.33-.22-.68-.4-1.04-.51-.36-.12-.73-.18-1.1-.18-.46,0-.91,.09-1.33,.25-.36,.14-.7,.33-1.01,.56-.55,.4-1.02,.91-1.43,1.49-.62,.87-1.1,1.91-1.44,3.03-.34,1.13-.53,2.35-.53,3.6,0,.24,0,.48,.02,.72-.56,.12-1.11,.18-1.66,.18-.62,0-1.23-.08-1.81-.26-.58-.18-1.15-.44-1.68-.83-.43-.31-.8-.68-1.08-1.09-.29-.42-.49-.87-.6-1.36-.08-.34-.12-.7-.12-1.05,0-.53,.09-1.05,.28-1.53,.14-.36,.33-.69,.58-1,.38-.46,.89-.85,1.6-1.15,.71-.3,1.62-.49,2.79-.49,.17,0,.34,0,.52,.01l1.61,.07-.37-1.56c-.09-.39-.19-.89-.29-1.47-.29-1.74-.56-4.23-.56-6.97,0-2.12,.16-4.39,.58-6.58,.31-1.64,.78-3.24,1.42-4.7,.48-1.09,1.06-2.11,1.76-3.02,.52-.68,1.11-1.3,1.76-1.84,.99-.82,2.13-1.48,3.49-1.95,1.36-.46,2.94-.73,4.79-.73,1.59,0,3.38,.2,5.38,.64,2.23,.59,4.03,1.36,5.48,2.26,1.09,.67,1.97,1.42,2.7,2.21,1.09,1.19,1.81,2.49,2.28,3.89,.46,1.39,.66,2.87,.66,4.38,0,1.81-.29,3.66-.73,5.42-.66,2.63-1.66,5.03-2.5,6.77-.42,.87-.79,1.57-1.06,2.05-.13,.24-.24,.42-.32,.55-.04,.06-.06,.11-.08,.14l-.02,.03h0l-.67,1.09,1.11,.62c.81,.45,1.46,.99,1.99,1.57,.52,.58,.92,1.21,1.2,1.87,.33,.78,.48,1.58,.48,2.36,0,.74-.14,1.46-.4,2.15Z"/><g><path class="c" d="M89.96,51.12c-.12,.69-.3,1.28-.52,1.77-.16,.36-.34,.67-.52,.91-.28,.37-.57,.62-.85,.77-.28,.15-.55,.22-.84,.22-.1,0-.21,0-.32-.03-.25-.04-.46-.13-.65-.26-.15-.1-.28-.22-.41-.37-.19-.23-.36-.53-.48-.93-.12-.4-.2-.89-.2-1.47,0-.43,.04-.91,.14-1.44l-2.39-.42c-.12,.65-.17,1.27-.17,1.86,0,.71,.08,1.36,.24,1.97,.12,.45,.29,.88,.5,1.26,.32,.58,.75,1.08,1.26,1.45,.51,.38,1.11,.63,1.74,.74,.24,.04,.49,.07,.74,.07,.62,0,1.24-.14,1.8-.41,.42-.2,.82-.48,1.18-.81,.54-.5,.99-1.14,1.34-1.88,.36-.75,.63-1.6,.8-2.57l-2.39-.42h0Z"/><g><polygon class="c" points="93.48 49.33 93.48 49.33 93.48 49.33 93.48 49.33"/><path class="c" d="M97.37,48.78c-.05-.17-.12-.33-.21-.48-.14-.23-.33-.42-.54-.56-.21-.14-.44-.23-.66-.28h0c-.14-.03-.29-.05-.44-.05-.24,0-.49,.05-.72,.14-.18,.07-.34,.18-.49,.3-.22,.19-.39,.41-.52,.66-.13,.25-.23,.52-.29,.82-.06,.25-.09,.5-.09,.74,0,.23,.03,.46,.1,.69,.05,.17,.12,.33,.21,.48,.14,.23,.33,.42,.54,.56,.21,.14,.44,.23,.66,.28h0c.14,.03,.29,.05,.44,.05,.24,0,.49-.05,.72-.14,.18-.07,.34-.18,.49-.3,.22-.19,.39-.41,.52-.66,.13-.25,.23-.52,.29-.82h0c.06-.25,.09-.5,.09-.74,0-.23-.03-.46-.1-.69Z"/></g><g><polygon class="c" points="79.18 46.69 79.18 46.69 79.18 46.69 79.18 46.69"/><path class="c" d="M82.92,46.19c-.05-.16-.12-.32-.21-.46-.14-.22-.32-.4-.52-.54-.2-.14-.42-.22-.64-.27-.14-.03-.28-.05-.43-.05-.23,0-.46,.04-.69,.14-.17,.07-.33,.17-.47,.28-.21,.18-.38,.39-.5,.63-.13,.24-.22,.49-.28,.77-.05,.23-.08,.46-.08,.69,0,.22,.03,.44,.09,.66,.05,.16,.12,.32,.21,.46,.14,.22,.32,.4,.52,.54,.2,.14,.42,.22,.64,.27h0c.13,.03,.28,.05,.43,.05,.23,0,.46-.04,.69-.14,.17-.07,.33-.17,.47-.28,.21-.18,.38-.39,.5-.63,.13-.24,.22-.49,.28-.77h0c.05-.23,.08-.46,.08-.69,0-.22-.03-.44-.09-.66Z"/><polygon class="c" points="81.55 44.92 81.55 44.92 81.55 44.92 81.55 44.92"/></g></g><path class="c" d="M310.5,66.48c-.45-.5-.98-.97-1.56-1.39,.49-.88,1.21-2.29,1.94-4.02,.63-1.51,1.26-3.27,1.74-5.17,.48-1.9,.8-3.94,.8-6.01,0-1.53-.18-3.08-.61-4.59-.33-1.13-.8-2.24-1.44-3.3-.97-1.58-2.32-3.04-4.12-4.26-1.8-1.23-4.04-2.23-6.78-2.95h-.05c-2.16-.49-4.13-.71-5.93-.71-1.64,0-3.15,.19-4.51,.54-1.2,.31-2.29,.75-3.28,1.29-1.73,.96-3.14,2.24-4.25,3.73-.84,1.11-1.52,2.33-2.06,3.61-.82,1.92-1.35,3.97-1.67,6.03-.33,2.06-.45,4.11-.45,6.04,0,1.93,.12,3.73,.3,5.27,.09,.77,.19,1.47,.29,2.1,0,.05,.02,.1,.02,.15-.91,.07-1.73,.24-2.46,.5-.73,.26-1.37,.62-1.92,1.05-.83,.64-1.43,1.45-1.82,2.32-.39,.87-.57,1.79-.57,2.7,0,.54,.06,1.07,.18,1.59,.18,.8,.52,1.55,.97,2.2,.45,.66,1.02,1.23,1.67,1.69,.76,.54,1.57,.93,2.4,1.18,.83,.25,1.68,.36,2.52,.36,.7,0,1.4-.08,2.08-.22,.19,.63,.45,1.25,.79,1.84,.56,.99,1.34,1.89,2.36,2.6,1.01,.72,2.25,1.25,3.7,1.53,.78,.16,1.54,.23,2.26,.23,.85,0,1.67-.1,2.42-.3,1.33-.34,2.5-.95,3.49-1.74,.45-.36,.87-.75,1.25-1.17,.24,.17,.48,.33,.74,.48,.69,.41,1.45,.74,2.27,.97,.82,.23,1.69,.35,2.61,.35,.49,0,.99-.04,1.5-.11,1.1-.16,2.13-.51,3.04-1.02,1.37-.76,2.49-1.87,3.26-3.18,.78-1.3,1.21-2.81,1.21-4.37,0-1.1-.22-2.22-.68-3.31-.38-.9-.93-1.77-1.63-2.55Zm-22.54,.36c.18,.15,.28,.3,.35,.45,.08,.16,.11,.34,.12,.56,0,.23-.05,.5-.15,.81-.09,.27-.23,.56-.42,.86-.32,.53-.79,1.09-1.35,1.62-.73,.68-1.63,1.32-2.6,1.81,.01-.81,.13-1.63,.33-2.39,.16-.61,.37-1.18,.61-1.68,.18-.38,.39-.72,.6-1.02,.32-.44,.66-.78,.97-.98,.15-.1,.3-.17,.43-.21,.13-.04,.26-.06,.38-.06,.11,0,.23,.02,.35,.06,.12,.04,.24,.1,.39,.19Zm10.38,7.28c-.15,.46-.34,.92-.56,1.36-.58-.75-1.04-1.59-1.35-2.42-.34-.91-.51-1.81-.51-2.55,0-.37,.04-.7,.11-.98,.05-.21,.12-.38,.2-.52,.06-.11,.12-.19,.19-.26,.1-.11,.2-.19,.33-.25,.13-.06,.29-.11,.51-.12,.04,0,.07,0,.1,0,.12,0,.23,.01,.31,.04,.08,.02,.14,.05,.21,.08,.11,.06,.22,.15,.33,.29,.16,.2,.32,.51,.44,.93,.11,.41,.18,.92,.18,1.48,0,.89-.16,1.92-.5,2.93Zm11.64,.36c-.39,1.02-1.05,1.95-1.91,2.65-.86,.71-1.92,1.19-3.13,1.37-.4,.06-.79,.08-1.16,.08-.62,0-1.21-.07-1.75-.21-.91-.22-1.72-.62-2.44-1.13,.45-.78,.81-1.59,1.07-2.41,.4-1.23,.6-2.48,.61-3.64,0-.65-.06-1.27-.2-1.86-.1-.44-.25-.86-.44-1.26-.15-.3-.32-.58-.53-.83-.31-.38-.71-.72-1.18-.94-.47-.23-1-.35-1.54-.35-.09,0-.17,0-.26,0-.58,.04-1.14,.19-1.62,.46-.36,.2-.68,.47-.94,.77-.39,.45-.66,.99-.83,1.55-.17,.56-.24,1.16-.24,1.77,0,1.11,.24,2.3,.69,3.46,.34,.88,.79,1.74,1.36,2.56,.25,.36,.53,.71,.82,1.04-.07,.07-.13,.15-.2,.22-.64,.66-1.38,1.21-2.23,1.59-.85,.38-1.81,.6-2.92,.61-.56,0-1.15-.06-1.79-.18-1.03-.2-1.85-.54-2.52-.97-.5-.32-.92-.69-1.28-1.1-.53-.62-.91-1.34-1.16-2.13-.01-.04-.03-.09-.04-.13,.81-.35,1.58-.77,2.28-1.25,.61-.41,1.18-.87,1.69-1.36,.77-.73,1.41-1.52,1.88-2.36,.23-.42,.42-.85,.56-1.29,.13-.44,.21-.9,.21-1.37,0-.54-.11-1.08-.35-1.59-.24-.51-.6-.97-1.06-1.34l-.04-.03-.05-.03c-.33-.22-.68-.4-1.04-.51-.36-.12-.73-.18-1.1-.18-.46,0-.91,.09-1.33,.25-.36,.14-.7,.33-1.01,.56-.55,.4-1.02,.91-1.43,1.49-.62,.87-1.1,1.91-1.44,3.03-.34,1.13-.53,2.35-.53,3.6,0,.24,0,.48,.02,.72-.56,.12-1.11,.18-1.66,.18-.62,0-1.23-.08-1.81-.26-.58-.18-1.15-.44-1.68-.83-.43-.31-.8-.68-1.08-1.09-.29-.42-.49-.87-.6-1.36-.08-.34-.12-.7-.12-1.05,0-.53,.09-1.05,.28-1.53,.14-.36,.33-.69,.58-1,.38-.46,.89-.85,1.6-1.15,.71-.3,1.62-.49,2.79-.49,.17,0,.34,0,.52,.01l1.61,.07-.37-1.56c-.09-.39-.19-.89-.29-1.47-.29-1.74-.56-4.23-.56-6.97,0-2.12,.16-4.39,.58-6.58,.31-1.64,.78-3.24,1.42-4.7,.48-1.09,1.06-2.11,1.76-3.02,.52-.68,1.11-1.3,1.76-1.84,.99-.82,2.13-1.48,3.49-1.95,1.36-.46,2.94-.73,4.79-.73,1.59,0,3.38,.2,5.38,.64,2.23,.59,4.03,1.36,5.48,2.26,1.09,.67,1.97,1.42,2.7,2.21,1.09,1.19,1.81,2.49,2.28,3.89,.46,1.39,.66,2.87,.66,4.38,0,1.81-.29,3.66-.73,5.42-.66,2.63-1.66,5.03-2.5,6.77-.42,.87-.79,1.57-1.06,2.05-.13,.24-.24,.42-.32,.55-.04,.06-.06,.11-.08,.14l-.02,.03h0l-.67,1.09,1.11,.62c.81,.45,1.46,.99,1.99,1.57,.52,.58,.92,1.21,1.2,1.87,.33,.78,.48,1.58,.48,2.36,0,.74-.14,1.46-.4,2.15Z"/><g><path class="c" d="M294.44,51.12c-.12,.69-.3,1.28-.52,1.77-.16,.36-.34,.67-.52,.91-.28,.37-.57,.62-.85,.77-.28,.15-.55,.22-.84,.22-.1,0-.21,0-.32-.03-.25-.04-.46-.13-.65-.26-.15-.1-.28-.22-.41-.37-.19-.23-.36-.53-.48-.93-.12-.4-.2-.89-.2-1.47,0-.43,.04-.91,.14-1.44l-2.39-.42c-.12,.65-.17,1.27-.17,1.86,0,.71,.08,1.36,.24,1.97,.12,.45,.29,.88,.5,1.26,.32,.58,.75,1.08,1.26,1.45,.51,.38,1.11,.63,1.74,.74,.24,.04,.49,.07,.74,.07,.62,0,1.24-.14,1.8-.41,.42-.2,.82-.48,1.18-.81,.54-.5,.99-1.14,1.34-1.88,.36-.75,.63-1.6,.8-2.57l-2.39-.42h0Z"/><g><polygon class="c" points="297.97 49.33 297.97 49.33 297.97 49.33 297.97 49.33"/><path class="c" d="M301.85,48.78c-.05-.17-.12-.33-.21-.48-.14-.23-.33-.42-.54-.56-.21-.14-.44-.23-.66-.28h0c-.14-.03-.29-.05-.44-.05-.24,0-.49,.05-.72,.14-.18,.07-.34,.18-.49,.3-.22,.19-.39,.41-.52,.66-.13,.25-.23,.52-.29,.82-.06,.25-.09,.5-.09,.74,0,.23,.03,.46,.1,.69,.05,.17,.12,.33,.21,.48,.14,.23,.33,.42,.54,.56,.21,.14,.44,.23,.66,.28h0c.14,.03,.29,.05,.44,.05,.24,0,.49-.05,.72-.14,.18-.07,.34-.18,.49-.3,.22-.19,.39-.41,.52-.66,.13-.25,.23-.52,.29-.82h0c.06-.25,.09-.5,.09-.74,0-.23-.03-.46-.1-.69Z"/></g><g><polygon class="c" points="283.67 46.69 283.67 46.69 283.67 46.69 283.67 46.69"/><path class="c" d="M287.41,46.19c-.05-.16-.12-.32-.21-.46-.14-.22-.32-.4-.52-.54-.2-.14-.42-.22-.64-.27-.14-.03-.28-.05-.43-.05-.23,0-.46,.04-.69,.14-.17,.07-.33,.17-.47,.28-.21,.18-.38,.39-.5,.63-.13,.24-.22,.49-.28,.77-.05,.23-.08,.46-.08,.69,0,.22,.03,.44,.09,.66,.05,.16,.12,.32,.21,.46,.14,.22,.32,.4,.52,.54,.2,.14,.42,.22,.64,.27h0c.13,.03,.28,.05,.43,.05,.23,0,.46-.04,.69-.14,.17-.07,.33-.17,.47-.28,.21-.18,.38-.39,.5-.63,.13-.24,.22-.49,.28-.77h0c.05-.23,.08-.46,.08-.69,0-.22-.03-.44-.09-.66Z"/><polygon class="c" points="286.04 44.92 286.04 44.92 286.04 44.92 286.04 44.92"/></g></g><path class="c" d="M513.13,66.48c-.45-.5-.98-.97-1.56-1.39,.49-.88,1.21-2.29,1.94-4.02,.63-1.51,1.26-3.27,1.74-5.17,.48-1.9,.8-3.94,.8-6.01,0-1.53-.18-3.08-.61-4.59-.33-1.13-.8-2.24-1.44-3.3-.97-1.58-2.32-3.04-4.12-4.26-1.8-1.23-4.04-2.23-6.78-2.95h-.05c-2.16-.49-4.13-.71-5.93-.71-1.64,0-3.15,.19-4.51,.54-1.2,.31-2.29,.75-3.28,1.29-1.73,.96-3.14,2.24-4.25,3.73-.84,1.11-1.52,2.33-2.06,3.61-.82,1.92-1.35,3.97-1.67,6.03-.33,2.06-.45,4.11-.45,6.04,0,1.93,.12,3.73,.3,5.27,.09,.77,.19,1.47,.29,2.1,0,.05,.02,.1,.02,.15-.91,.07-1.73,.24-2.46,.5-.73,.26-1.37,.62-1.92,1.05-.83,.64-1.43,1.45-1.82,2.32-.39,.87-.57,1.79-.57,2.7,0,.54,.06,1.07,.18,1.59,.18,.8,.52,1.55,.97,2.2,.45,.66,1.02,1.23,1.67,1.69,.76,.54,1.57,.93,2.4,1.18,.83,.25,1.68,.36,2.52,.36,.7,0,1.4-.08,2.08-.22,.19,.63,.45,1.25,.79,1.84,.56,.99,1.34,1.89,2.36,2.6,1.01,.72,2.25,1.25,3.7,1.53,.78,.16,1.54,.23,2.26,.23,.85,0,1.67-.1,2.42-.3,1.33-.34,2.5-.95,3.49-1.74,.45-.36,.87-.75,1.25-1.17,.24,.17,.48,.33,.74,.48,.69,.41,1.45,.74,2.27,.97,.82,.23,1.69,.35,2.61,.35,.49,0,.99-.04,1.5-.11,1.1-.16,2.13-.51,3.04-1.02,1.37-.76,2.49-1.87,3.26-3.18,.78-1.3,1.21-2.81,1.21-4.37,0-1.1-.22-2.22-.68-3.31-.38-.9-.93-1.77-1.63-2.55Zm-22.54,.36c.18,.15,.28,.3,.35,.45,.08,.16,.11,.34,.12,.56,0,.23-.05,.5-.15,.81-.09,.27-.23,.56-.42,.86-.32,.53-.79,1.09-1.35,1.62-.73,.68-1.63,1.32-2.6,1.81,.01-.81,.13-1.63,.33-2.39,.16-.61,.37-1.18,.61-1.68,.18-.38,.39-.72,.6-1.02,.32-.44,.66-.78,.97-.98,.15-.1,.3-.17,.43-.21,.13-.04,.26-.06,.38-.06,.11,0,.23,.02,.35,.06,.12,.04,.24,.1,.39,.19Zm10.38,7.28c-.15,.46-.34,.92-.56,1.36-.58-.75-1.04-1.59-1.35-2.42-.34-.91-.51-1.81-.51-2.55,0-.37,.04-.7,.11-.98,.05-.21,.12-.38,.2-.52,.06-.11,.12-.19,.19-.26,.1-.11,.2-.19,.33-.25,.13-.06,.29-.11,.51-.12,.04,0,.07,0,.1,0,.12,0,.23,.01,.31,.04,.08,.02,.14,.05,.21,.08,.11,.06,.22,.15,.33,.29,.16,.2,.32,.51,.44,.93,.11,.41,.18,.92,.18,1.48,0,.89-.16,1.92-.5,2.93Zm11.64,.36c-.39,1.02-1.05,1.95-1.91,2.65-.86,.71-1.92,1.19-3.13,1.37-.4,.06-.79,.08-1.16,.08-.62,0-1.21-.07-1.75-.21-.91-.22-1.72-.62-2.44-1.13,.45-.78,.81-1.59,1.07-2.41,.4-1.23,.6-2.48,.61-3.64,0-.65-.06-1.27-.2-1.86-.1-.44-.25-.86-.44-1.26-.15-.3-.32-.58-.53-.83-.31-.38-.71-.72-1.18-.94-.47-.23-1-.35-1.54-.35-.09,0-.17,0-.26,0-.58,.04-1.14,.19-1.62,.46-.36,.2-.68,.47-.94,.77-.39,.45-.66,.99-.83,1.55-.17,.56-.24,1.16-.24,1.77,0,1.11,.24,2.3,.69,3.46,.34,.88,.79,1.74,1.36,2.56,.25,.36,.53,.71,.82,1.04-.07,.07-.13,.15-.2,.22-.64,.66-1.38,1.21-2.23,1.59-.85,.38-1.81,.6-2.92,.61-.56,0-1.15-.06-1.79-.18-1.03-.2-1.85-.54-2.52-.97-.5-.32-.92-.69-1.28-1.1-.53-.62-.91-1.34-1.16-2.13-.01-.04-.03-.09-.04-.13,.81-.35,1.58-.77,2.28-1.25,.61-.41,1.18-.87,1.69-1.36,.77-.73,1.41-1.52,1.88-2.36,.23-.42,.42-.85,.56-1.29,.13-.44,.21-.9,.21-1.37,0-.54-.11-1.08-.35-1.59-.24-.51-.6-.97-1.06-1.34l-.04-.03-.05-.03c-.33-.22-.68-.4-1.04-.51-.36-.12-.73-.18-1.1-.18-.46,0-.91,.09-1.33,.25-.36,.14-.7,.33-1.01,.56-.55,.4-1.02,.91-1.43,1.49-.62,.87-1.1,1.91-1.44,3.03-.34,1.13-.53,2.35-.53,3.6,0,.24,0,.48,.02,.72-.56,.12-1.11,.18-1.66,.18-.62,0-1.23-.08-1.81-.26-.58-.18-1.15-.44-1.68-.83-.43-.31-.8-.68-1.08-1.09-.29-.42-.49-.87-.6-1.36-.08-.34-.12-.7-.12-1.05,0-.53,.09-1.05,.28-1.53,.14-.36,.33-.69,.58-1,.38-.46,.89-.85,1.6-1.15,.71-.3,1.62-.49,2.79-.49,.17,0,.34,0,.52,.01l1.61,.07-.37-1.56c-.09-.39-.19-.89-.29-1.47-.29-1.74-.56-4.23-.56-6.97,0-2.12,.16-4.39,.58-6.58,.31-1.64,.78-3.24,1.42-4.7,.48-1.09,1.06-2.11,1.76-3.02,.52-.68,1.11-1.3,1.76-1.84,.99-.82,2.13-1.48,3.49-1.95,1.36-.46,2.94-.73,4.79-.73,1.59,0,3.38,.2,5.38,.64,2.23,.59,4.03,1.36,5.48,2.26,1.09,.67,1.97,1.42,2.7,2.21,1.09,1.19,1.81,2.49,2.28,3.89,.46,1.39,.66,2.87,.66,4.38,0,1.81-.29,3.66-.73,5.42-.66,2.63-1.66,5.03-2.5,6.77-.42,.87-.79,1.57-1.06,2.05-.13,.24-.24,.42-.32,.55-.04,.06-.06,.11-.08,.14l-.02,.03h0l-.67,1.09,1.11,.62c.81,.45,1.46,.99,1.99,1.57,.52,.58,.92,1.21,1.2,1.87,.33,.78,.48,1.58,.48,2.36,0,.74-.14,1.46-.4,2.15Z"/><g><path class="c" d="M497.07,51.12c-.12,.69-.3,1.28-.52,1.77-.16,.36-.34,.67-.52,.91-.28,.37-.57,.62-.85,.77-.28,.15-.55,.22-.84,.22-.1,0-.21,0-.32-.03-.25-.04-.46-.13-.65-.26-.15-.1-.28-.22-.41-.37-.19-.23-.36-.53-.48-.93-.12-.4-.2-.89-.2-1.47,0-.43,.04-.91,.14-1.44l-2.39-.42c-.12,.65-.17,1.27-.17,1.86,0,.71,.08,1.36,.24,1.97,.12,.45,.29,.88,.5,1.26,.32,.58,.75,1.08,1.26,1.45,.51,.38,1.11,.63,1.74,.74,.24,.04,.49,.07,.74,.07,.62,0,1.24-.14,1.8-.41,.42-.2,.82-.48,1.18-.81,.54-.5,.99-1.14,1.34-1.88,.36-.75,.63-1.6,.8-2.57l-2.39-.42h0Z"/><g><polygon class="c" points="500.6 49.33 500.6 49.33 500.6 49.33 500.6 49.33"/><path class="c" d="M504.48,48.78c-.05-.17-.12-.33-.21-.48-.14-.23-.33-.42-.54-.56-.21-.14-.44-.23-.66-.28h0c-.14-.03-.29-.05-.44-.05-.24,0-.49,.05-.72,.14-.18,.07-.34,.18-.49,.3-.22,.19-.39,.41-.52,.66-.13,.25-.23,.52-.29,.82-.06,.25-.09,.5-.09,.74,0,.23,.03,.46,.1,.69,.05,.17,.12,.33,.21,.48,.14,.23,.33,.42,.54,.56,.21,.14,.44,.23,.66,.28h0c.14,.03,.29,.05,.44,.05,.24,0,.49-.05,.72-.14,.18-.07,.34-.18,.49-.3,.22-.19,.39-.41,.52-.66,.13-.25,.23-.52,.29-.82h0c.06-.25,.09-.5,.09-.74,0-.23-.03-.46-.1-.69Z"/></g><g><polygon class="c" points="486.29 46.69 486.29 46.69 486.29 46.69 486.29 46.69"/><path class="c" d="M490.03,46.19c-.05-.16-.12-.32-.21-.46-.14-.22-.32-.4-.52-.54-.2-.14-.42-.22-.64-.27-.14-.03-.28-.05-.43-.05-.23,0-.46,.04-.69,.14-.17,.07-.33,.17-.47,.28-.21,.18-.38,.39-.5,.63-.13,.24-.22,.49-.28,.77-.05,.23-.08,.46-.08,.69,0,.22,.03,.44,.09,.66,.05,.16,.12,.32,.21,.46,.14,.22,.32,.4,.52,.54,.2,.14,.42,.22,.64,.27h0c.13,.03,.28,.05,.43,.05,.23,0,.46-.04,.69-.14,.17-.07,.33-.17,.47-.28,.21-.18,.38-.39,.5-.63,.13-.24,.22-.49,.28-.77h0c.05-.23,.08-.46,.08-.69,0-.22-.03-.44-.09-.66Z"/><polygon class="c" points="488.66 44.92 488.66 44.92 488.66 44.92 488.66 44.92"/></g></g></g></svg>