<svg width="20" height="20" viewBox="0 0 20 20" fill="none" xmlns="http://www.w3.org/2000/svg">
<g clip-path="url(#clip0_5018:73)">
<path fill-rule="evenodd" clip-rule="evenodd" d="M9.99949 -0.00011944C7.6235 -0.00184137 5.32521 0.842534 3.51511 2.38166C1.70502 3.92078 0.501823 6.05411 0.121559 8.39948C-0.258705 10.7448 0.208859 13.149 1.43992 15.1812C2.67098 17.2134 4.58549 18.7408 6.84031 19.4899C7.34031 19.5799 7.52 19.2699 7.52 18.9999C7.52 18.7299 7.52 18.1399 7.52 17.2999C4.74 17.9099 4.15965 15.9599 4.15965 15.9599C3.9721 15.3582 3.57987 14.8415 3.05027 14.4999C2.14027 13.8799 3.10984 13.8899 3.10984 13.8899C3.42529 13.9298 3.72793 14.0405 3.99461 14.2136C4.26128 14.3868 4.48512 14.618 4.64988 14.8899C4.78451 15.1374 4.96707 15.3556 5.18699 15.5317C5.40691 15.7078 5.66019 15.8383 5.93113 15.9156C6.20206 15.9929 6.48538 16.0153 6.76511 15.9818C7.04484 15.9482 7.3151 15.8591 7.56004 15.7199C7.60788 15.2165 7.83071 14.7458 8.18992 14.3899C5.96992 14.1299 3.64011 13.2799 3.64011 9.3899C3.61792 8.40146 3.97586 7.4422 4.64011 6.7099C4.3288 5.84777 4.36087 4.8989 4.72996 4.05988C4.72996 4.05988 5.56996 3.79988 7.47996 5.05988C9.11606 4.60849 10.8439 4.60849 12.48 5.05988C14.39 3.76988 15.23 4.05988 15.23 4.05988C15.5944 4.89943 15.6297 5.84527 15.3296 6.7099C15.9938 7.4422 16.3518 8.40146 16.3296 9.3899C16.3296 13.2399 13.9902 14.0799 11.7602 14.3299C11.9986 14.5722 12.182 14.8625 12.2993 15.1815C12.4166 15.5005 12.4646 15.8409 12.4399 16.1799C12.4399 17.5199 12.4399 18.5999 12.4399 18.9199C12.4399 19.2399 12.6196 19.4999 13.1196 19.4099C15.3744 18.6608 17.2889 17.1333 18.52 15.1011C19.7511 13.0689 20.2186 10.6648 19.8384 8.31946C19.4581 5.9741 18.2549 3.84076 16.4448 2.30164C14.6347 0.762517 12.3364 -0.0817974 9.96043 -0.0800755L9.99949 -0.00011944Z" fill="white"></path>
</g>
<defs>
<clipPath id="clip0_5018:73">
<rect width="20" height="19.51" fill="white"></rect>
</clipPath>
</defs>
</svg>