<svg width="23" height="14" viewBox="0 0 23 14" fill="none" xmlns="http://www.w3.org/2000/svg">
<g clip-path="url(#clip0_5018:69)">
<path d="M12.97 6.52997C12.9621 7.81184 12.5746 9.06269 11.8567 10.1247C11.1388 11.1867 10.1224 12.0123 8.93579 12.4974C7.74922 12.9825 6.44501 13.1053 5.18872 12.8503C3.93243 12.5954 2.77986 11.9742 1.87622 11.065C0.97257 10.1558 0.35876 8.99929 0.111567 7.74146C-0.135626 6.48362 -0.00482282 5.18076 0.487543 3.99719C0.97991 2.81363 1.81178 1.80238 2.87817 1.091C3.94456 0.379626 5.19784 2.43476e-05 6.47973 0C7.33501 0.0013067 8.18152 0.17137 8.97094 0.500488C9.76036 0.829607 10.4774 1.31128 11.0803 1.91791C11.6832 2.52454 12.1604 3.24422 12.4846 4.03564C12.8089 4.82707 12.9739 5.6747 12.97 6.52997Z" fill="white"></path>
<path d="M20.0894 6.53009C20.0894 9.92009 18.6294 12.6801 16.8394 12.6801C15.0494 12.6801 13.6001 9.92009 13.6001 6.53009C13.6001 3.14009 15.0494 0.380127 16.8394 0.380127C18.6294 0.380127 20.0894 3.13009 20.0894 6.53009Z" fill="white"></path>
<path d="M22.9995 6.53003C22.9995 9.53003 22.4899 12.04 21.8599 12.04C21.2299 12.04 20.7202 9.57003 20.7202 6.53003C20.7202 3.49003 21.2299 1.02002 21.8599 1.02002C22.4899 1.02002 22.9995 3.49003 22.9995 6.53003Z" fill="white"></path>
</g>
<defs>
<clipPath id="clip0_5018:69">
<rect width="23" height="13.06" fill="white"></rect>
</clipPath>
</defs>
</svg>