<svg width="20" height="18" viewBox="0 0 20 18" fill="none" xmlns="http://www.w3.org/2000/svg">
<g clip-path="url(#clip0_5018:77)">
<path d="M20 9.07003C19.9988 8.64086 19.8714 8.22155 19.6338 7.86415C19.3962 7.50676 19.0584 7.22703 18.6631 7.05977C18.2679 6.89251 17.8322 6.84509 17.4102 6.92336C16.9882 7.00163 16.599 7.20214 16.2901 7.50002C14.5636 6.32196 12.5293 5.67536 10.4395 5.64003L11.4395 0.95003L14.6895 1.64003C14.7057 2.02219 14.861 2.38526 15.126 2.66109C15.391 2.93692 15.7478 3.10655 16.129 3.13808C16.5101 3.16961 16.8896 3.0609 17.1963 2.83235C17.503 2.60381 17.7162 2.27116 17.795 1.89687C17.8738 1.52257 17.8126 1.13239 17.6241 0.799579C17.4355 0.466772 17.1321 0.214211 16.7706 0.0893736C16.409 -0.035464 16.0149 -0.02398 15.6612 0.1216C15.3075 0.26718 15.0186 0.53685 14.8497 0.880023L11.2198 0.100055C11.1683 0.089318 11.1151 0.0890724 11.0635 0.0993833C11.012 0.109694 10.9633 0.130346 10.92 0.160052C10.8759 0.185327 10.838 0.219866 10.8086 0.26131C10.7793 0.302754 10.7593 0.3501 10.75 0.400043L9.63969 5.64003C7.52053 5.65715 5.45338 6.3008 3.69926 7.49001C3.46877 7.26909 3.19286 7.10127 2.89067 6.99825C2.58848 6.89523 2.26768 6.85952 1.95024 6.89363C1.6328 6.92775 1.32715 7.03088 1.05375 7.19576C0.780359 7.36064 0.545521 7.58326 0.367231 7.8481C0.188942 8.11295 0.0714098 8.41362 0.021528 8.72896C-0.0283539 9.0443 -0.00869767 9.36672 0.0791452 9.67366C0.166988 9.98061 0.32018 10.2646 0.52934 10.5058C0.738501 10.747 0.998673 10.9396 1.29008 11.07C1.25776 11.2886 1.24027 11.5092 1.2393 11.7301C1.2393 15.1001 5.1593 17.83 9.9893 17.83C14.8193 17.83 18.75 15.1001 18.75 11.7301C18.7649 11.5103 18.7649 11.2898 18.75 11.07C19.1268 10.8897 19.4437 10.6058 19.6651 10.2517C19.8864 9.8975 20.003 9.48766 20 9.07003ZM5.00004 10.63C5.00004 10.3195 5.09218 10.016 5.26469 9.75777C5.43721 9.49958 5.68191 9.29835 5.96879 9.17952C6.25567 9.06069 6.57147 9.02965 6.87602 9.09023C7.18057 9.15081 7.46016 9.30029 7.67973 9.51985C7.8993 9.73942 8.04884 10.0192 8.10942 10.3237C8.17 10.6283 8.13938 10.944 8.02055 11.2309C7.90172 11.5177 7.70061 11.7629 7.44243 11.9354C7.18424 12.108 6.8799 12.2 6.56938 12.2C6.362 12.2027 6.15615 12.164 5.96391 12.0861C5.77167 12.0083 5.59736 11.8929 5.45024 11.7467C5.30312 11.6005 5.18652 11.4265 5.10747 11.2348C5.02841 11.043 4.98795 10.8374 4.9893 10.63H5.00004ZM13.7198 14.77C12.6498 15.83 10.6098 15.9101 10.0098 15.9101C9.40981 15.9101 7.35985 15.83 6.29985 14.77C6.26175 14.732 6.2316 14.6867 6.21098 14.637C6.19036 14.5872 6.17973 14.5339 6.17973 14.4801C6.17973 14.4262 6.19036 14.3728 6.21098 14.3231C6.2316 14.2733 6.26175 14.2281 6.29985 14.19C6.33707 14.1522 6.38178 14.1223 6.43071 14.1018C6.47964 14.0813 6.53196 14.0707 6.585 14.0707C6.63805 14.0707 6.69037 14.0813 6.7393 14.1018C6.78823 14.1223 6.83294 14.1522 6.87016 14.19C7.80949 14.7847 8.89805 15.1005 10.0098 15.1005C11.1216 15.1005 12.2101 14.7847 13.1495 14.19C13.1867 14.1522 13.2314 14.1223 13.2803 14.1018C13.3292 14.0813 13.3816 14.0707 13.4346 14.0707C13.4877 14.0707 13.54 14.0813 13.5889 14.1018C13.6378 14.1223 13.6826 14.1522 13.7198 14.19C13.7554 14.2307 13.7826 14.278 13.7998 14.3292C13.8171 14.3804 13.8241 14.4345 13.8204 14.4884C13.8166 14.5423 13.8025 14.5949 13.7784 14.6432C13.7542 14.6915 13.7206 14.7347 13.6797 14.77H13.7198ZM13.4395 12.2C13.129 12.2 12.8256 12.108 12.5674 11.9354C12.3092 11.7629 12.1081 11.5177 11.9893 11.2309C11.8705 10.944 11.8389 10.6283 11.8995 10.3237C11.96 10.0192 12.1096 9.73942 12.3291 9.51985C12.5487 9.30029 12.8293 9.15081 13.1338 9.09023C13.4384 9.02965 13.7532 9.06069 14.0401 9.17952C14.327 9.29835 14.5726 9.49958 14.7452 9.75777C14.9177 10.016 15.0098 10.3195 15.0098 10.63C15.0112 10.8374 14.9707 11.043 14.8916 11.2348C14.8126 11.4265 14.696 11.6005 14.5489 11.7467C14.4018 11.8929 14.2274 12.0083 14.0352 12.0861C13.843 12.164 13.6371 12.2027 13.4297 12.2H13.4395Z" fill="white"></path>
</g>
<defs>
<clipPath id="clip0_5018:77">
<rect width="20" height="17.82" fill="white"></rect>
</clipPath>
</defs>
</svg>