<svg width="18" height="15" viewBox="0 0 18 15" fill="none" xmlns="http://www.w3.org/2000/svg">
<g clip-path="url(#clip0_5018:75)">
<path fill-rule="evenodd" clip-rule="evenodd" d="M1.25986 6.41992C6.09986 4.30659 9.32311 2.91654 10.9298 2.24987C15.5298 0.339874 16.4895 0.00987446 17.1095 -0.00012554C17.3383 -0.0119762 17.5648 0.0550995 17.7501 0.189877C17.8863 0.302373 17.9728 0.464116 17.9903 0.639889C18.0129 0.855969 18.0129 1.07383 17.9903 1.28991C17.7403 3.90991 16.6595 10.2899 16.1095 13.2099C15.8795 14.4499 15.4196 14.8599 14.9796 14.8999C13.9796 14.9899 13.2797 14.2699 12.3497 13.6599C10.8897 12.6599 10.0695 12.1099 8.64951 11.1699C7.01951 10.0899 8.07986 9.4999 9.00986 8.5299C9.24986 8.2799 13.4902 4.41988 13.5802 4.06988C13.5908 4.01866 13.5892 3.9657 13.5753 3.91528C13.5614 3.86486 13.5355 3.81844 13.5001 3.7799C13.4481 3.75101 13.3897 3.73584 13.3302 3.73584C13.2707 3.73584 13.2122 3.75101 13.1602 3.7799C13.0069 3.7799 10.6736 5.3199 6.16025 8.3999C5.64087 8.797 5.01244 9.02717 4.35947 9.05993C3.47881 8.95683 2.61297 8.75209 1.77939 8.44989C0.779389 8.10989 -0.0796731 7.93992 -0.00967309 7.35992C0.0403269 7.02992 0.449858 6.72992 1.25986 6.41992Z" fill="white"></path>
</g>
<defs>
<clipPath id="clip0_5018:75">
<rect width="18" height="14.92" fill="white"></rect>
</clipPath>
</defs>
</svg>