<svg width="19" height="15" viewBox="0 0 19 15" fill="none" xmlns="http://www.w3.org/2000/svg">
<path d="M5.68136 14.6904C12.508 14.6904 16.2325 9.03607 16.2325 4.13928C16.2325 3.97695 16.2325 3.81463 16.2234 3.66132C16.9449 3.13828 17.5762 2.47996 18.0721 1.74048C17.4048 2.03808 16.6924 2.23647 15.9439 2.32665C16.7104 1.86673 17.2966 1.14529 17.5762 0.270541C16.8637 0.694389 16.0701 1.001 15.2224 1.17234C14.5461 0.450902 13.5812 0 12.517 0C10.4699 0 8.81062 1.65932 8.81062 3.70641C8.81062 3.99499 8.84669 4.28357 8.90982 4.55411C5.81663 4.39178 3.07515 2.91283 1.25351 0.676353C0.928858 1.21744 0.748497 1.85772 0.748497 2.53407C0.748497 3.82365 1.40681 4.95992 2.3988 5.61824C1.78557 5.60922 1.21743 5.43788 0.721443 5.15832C0.721443 5.17635 0.721443 5.18537 0.721443 5.20341C0.721443 6.998 2.002 8.50401 3.69739 8.83768C3.38176 8.91884 3.05711 8.96393 2.72345 8.96393C2.48898 8.96393 2.25451 8.93687 2.02906 8.9008C2.498 10.3707 3.86874 11.4439 5.49198 11.48C4.22044 12.4719 2.62425 13.0671 0.883768 13.0671C0.586172 13.0671 0.288577 13.0491 0 13.013C1.63226 14.0772 3.58016 14.6904 5.68136 14.6904Z" fill="#F9F8F6"></path>
</svg>