<?xml version="1.0" encoding="UTF-8"?><svg xmlns="http://www.w3.org/2000/svg" xmlns:xlink="http://www.w3.org/1999/xlink" viewBox="0 0 579.78 150.26"><defs><style>.i{fill:url(#e);}.j{fill:url(#d);}.k{fill:url(#g);}.l{fill:url(#f);}.m{fill:url(#h);}.n{fill:#fff;}</style><linearGradient id="d" x1="-13.29" y1="106.33" x2="207.3" y2="-9.02" gradientTransform="matrix(1, 0, 0, 1, 0, 0)" gradientUnits="userSpaceOnUse"><stop offset="0" stop-color="#fda9ff"/><stop offset=".03" stop-color="#f8aaff"/><stop offset=".24" stop-color="#dbb2ff"/><stop offset=".37" stop-color="#d1b6ff"/><stop offset=".89" stop-color="#4dffe5"/></linearGradient><linearGradient id="e" x1="76.72" y1="70.18" x2="99.45" y2="-13.18" gradientTransform="matrix(1, 0, 0, 1, 0, 0)" gradientUnits="userSpaceOnUse"><stop offset="0" stop-color="#16183c" stop-opacity=".3"/><stop offset=".28" stop-color="#16183c" stop-opacity=".18"/><stop offset=".87" stop-color="#16183c" stop-opacity="0"/></linearGradient><linearGradient id="f" x1="-5.98" y1="112.59" x2="191.88" y2="25.03" xlink:href="#d"/><linearGradient id="g" x1="66.55" y1="93.58" x2="96.86" y2="31.27" xlink:href="#e"/><linearGradient id="h" x1="-14.46" y1="125.18" x2="163.19" y2="56.99" xlink:href="#d"/></defs><g id="a"/><g id="b"><g id="c"><g><g><path class="j" d="M.06,2.9V56.45l.02-2.12c.36,45.76,38.85,84.88,86.29,84.88s85.94-36.99,86.29-82.76l.02-2.12V2.9s-11.97-5.84-25.59,8.09c-8.74,8.94-15.73,41.06-34.45,41.35-25,.39-42-32.83-62.34-45.24C29.06-5.87,.06,2.9,.06,2.9Z"/><path class="i" d="M.06,2.9V56.45l.02-2.12c.36,45.76,38.85,84.88,86.29,84.88s85.94-36.99,86.29-82.76l.02-2.12V2.9s-11.97-5.84-25.59,8.09c-8.74,8.94-15.73,41.06-34.45,41.35-25,.39-42-32.83-62.34-45.24C29.06-5.87,.06,2.9,.06,2.9Z"/><path class="l" d="M172.67,61.74l.02-2.27V24.54c-4.87,.81-10.87,3.19-17.21,9.04-9.81,9.05-17.64,41.55-38.64,41.84-28.03,.39-47.11-33.22-69.92-45.78C31.09,20.91,11.42,21.91,0,23.56V61.74l.02-2.27c.36,48.95,38.86,90.8,86.33,90.8s85.97-39.57,86.33-88.53Z"/><path class="k" d="M172.67,61.74l.02-2.27V24.54c-4.87,.81-10.87,3.19-17.21,9.04-9.81,9.05-17.64,41.55-38.64,41.84-28.03,.39-47.11-33.22-69.92-45.78C31.09,20.91,11.42,21.91,0,23.56V61.74l.02-2.27c.36,48.95,38.86,90.8,86.33,90.8s85.97-39.57,86.33-88.53Z"/><path class="m" d="M172.67,61.74l.02-2.27v-6.16c-3.73,1.42-7.8,3.7-12,7.3-10.56,9.05-18.99,41.55-41.59,41.84-30.18,.39-50.71-33.22-75.27-45.78-14.26-7.29-31.41-7.79-43.83-6.79v11.86l.02-2.27c.36,48.95,38.86,90.8,86.33,90.8s85.97-39.57,86.33-88.53Z"/></g><g><path class="n" d="M255.26,115.52c-1.66-3.13-3.33-9.07-3.7-13.52-5.18,9.73-14.79,15-25.33,15-13.13,0-19.97-8.24-19.97-23.24v-31.48c0-6.92-.19-11.37-4.26-20.93,10.73-3.13,20.9-6.43,31.44-10.71v60c0,7.42,2.03,10.88,8.32,10.88,2.96,0,6.47-.99,9.62-4.29V62.12c0-7.09-.37-14.34-2.77-21.26,10.35-2.8,19.6-6.1,29.96-10.71v61.48c0,8.08,.56,14.34,4.07,23.9h-27.37Z"/><path class="n" d="M419.1,115.52h-29.96c-1.85-6.92-2.4-19.45-2.4-28.02v-30.33c0-8.41-2.77-10.88-8.32-10.88-2.96,0-6.66,1.15-9.8,4.78v36.1c0,8.9,1.48,18.96,4.99,28.35h-32.18V57.17c0-8.41-2.77-10.88-8.14-10.88-3.14,0-6.66,1.15-9.8,4.78v41.54c0,9.39,.18,14.67,4.25,22.91h-35.69c3.88-8.24,4.25-13.52,4.25-22.91v-31.98c0-8.24-.19-12.36-4.25-19.78,8.88-3.3,18.12-6.76,26.81-10.55,2.4,4.45,4.26,10.71,4.63,15.99,4.99-10.05,14.79-15.5,25.15-15.5,11.09,0,17.57,5.77,19.42,16.48,4.99-10.55,14.98-16.48,25.89-16.48,12.94,0,19.97,8.24,19.97,23.24v33.13c0,8.9,1.3,18.96,5.18,28.35Z"/><path class="n" d="M496.57,74.69h-47.34c2.03,13.85,8.69,22.42,27.92,22.42,8.51,0,13.87-1.65,19.05-3.79-1.67,9.89-12.02,24.39-33.84,24.39-23.49,0-40.13-17.14-40.13-42.86s14.56-44.18,40.13-44.18c19.99,0,34.21,14.03,34.21,38.41v5.6Zm-27.74-11.7c0-17.64-3.7-23.74-9.62-23.74s-10.54,6.76-10.54,24.4c0,1.81,0,3.63,.19,5.44h19.97v-6.1Z"/><path class="n" d="M579.78,74.73h-47.34c2.03,13.85,8.69,22.42,27.92,22.42,8.51,0,13.87-1.65,19.05-3.79-1.67,9.89-12.02,24.39-33.84,24.39-23.49,0-40.13-17.14-40.13-42.86s14.56-44.18,40.13-44.18c16.75,0,34.21,14.03,34.21,38.41v5.6Zm-27.74-11.7c0-17.64-3.7-23.74-9.62-23.74s-10.54,6.76-10.54,24.4c0,1.81,0,3.63,.19,5.44h19.97v-6.1Z"/></g></g></g></g></svg>